<svg xmlns="http://www.w3.org/2000/svg" viewBox="0 0 514.74 514.74"><defs><style>.cls-1{fill:#bb86fc;}.cls-2{fill:#0c0c0c;}</style></defs><g id="Camada_2" data-name="Camada 2"><g id="Layer_1" data-name="Layer 1"><path class="cls-1" d="M439.36,75.38a257.37,257.37,0,0,0-364,364,257.37,257.37,0,0,0,364-364Zm-182,429.52c-136.49,0-247.53-111-247.53-247.53S120.89,9.85,257.38,9.85s247.52,111,247.52,247.52S393.86,504.9,257.38,504.9Z"/><path class="cls-1" d="M504.9,257.37c0,136.49-111,247.53-247.52,247.53S9.85,393.86,9.85,257.37,120.89,9.85,257.38,9.85,504.9,120.89,504.9,257.37Z"/><path class="cls-2" d="M90.67,227.45a14.15,14.15,0,0,0,1.26,2.39,19.17,19.17,0,0,0,1.91,2.44c.24.26.49.53.76.79a19.35,19.35,0,0,0,1.72,1.54,10.49,10.49,0,0,0,2.53,1.51,6.38,6.38,0,0,0,2.55.48,7.34,7.34,0,0,0,2.66-.58,13.66,13.66,0,0,0,2.54-1.41,27.55,27.55,0,0,0,2.81-2.26c1.39-1.26,2.91-2.81,4.58-4.65s3.5-4,5.53-6.41c1.55-1.86,3.21-3.89,5-6.11l5.8-7.18c2.38-2.94,4.95-6.12,7.75-9.54q3.31-4.07,7.07-8.58l1.74-2.11c2.55-3.11,4.67-5.77,6.47-8s3.26-4,4.51-5.44a18.15,18.15,0,0,1,3.33-3.14,3.27,3.27,0,0,1,2.57-.65,6.37,6.37,0,0,1,2.95,2.07c1.1,1.16,2.38,2.78,4,4.8.57.72,1.2,1.49,1.87,2.3,1.88,2.27,3.67,4.43,5.38,6.51l6.6,8,9.25,11.29c2.74,3.34,5.15,6.28,7.3,8.86,4.55,5.48,7.91,9.38,10.67,12.22a34.62,34.62,0,0,0,7,5.91,25.9,25.9,0,0,0,6.33,2.56l.19,0a27.56,27.56,0,0,0,7,1,30.78,30.78,0,0,0,7.55-.87c.85-.2,1.71-.44,2.57-.72a36.8,36.8,0,0,0,4.69-2.07,25.22,25.22,0,0,0,5.66-4.4c2.11-2.09,4.64-5,8.17-9.19,2.24-2.67,4.87-5.87,8.06-9.75l.24-.3c2.86-3.48,5.47-6.66,7.86-9.59,3-3.62,5.57-6.84,7.89-9.68s4.34-5.3,6.11-7.42c1.89-2.27,3.49-4.16,4.86-5.71s2.52-2.75,3.5-3.66a13,13,0,0,1,2.35-1.83,3.05,3.05,0,0,1,1.72-.48,3,3,0,0,1,1.95,1.16l.35.4,1.3,1.57c1.61,1.95,3.17,3.84,4.68,5.65l4.35,5.26q4.51,5.44,8.3,10l7,8.42c3.82,4.62,7,8.43,9.61,11.6s4.74,5.68,6.45,7.69a73.07,73.07,0,0,0,7.13,7.72,18.12,18.12,0,0,0,2.79,1.9c.74.44,1.49.85,2.24,1.22a30.94,30.94,0,0,0,6.5,2.33,30,30,0,0,0,6.44.79,28.78,28.78,0,0,0,8.7-1.22,25.44,25.44,0,0,0,7.33-3.54l.15-.1a34.57,34.57,0,0,0,4.73-4.29c1.91-2,4.23-4.66,7.28-8.28l3-3.63,3.5-4.23,7.35-8.91,9.22-11.18,5.52-6.65c.15-.18.3-.35.44-.53,2.08-2.48,4.15-4.8,6.09-7,2.21-2.49,4.25-4.83,6-7.05a31,31,0,0,0,4-6.37,13.32,13.32,0,0,0,.93-3,9.25,9.25,0,0,0,0-3,9.43,9.43,0,0,0-.52-1.86,12,12,0,0,0-.95-1.85,14.52,14.52,0,0,0-1.31-1.78,16.17,16.17,0,0,0-1.58-1.63,17.38,17.38,0,0,0-2.21-1.71,15.91,15.91,0,0,0-2.4-1.29,11.42,11.42,0,0,0-2.46-.76,8.16,8.16,0,0,0-2.4-.12,8.59,8.59,0,0,0-2.48.65,12.64,12.64,0,0,0-2.49,1.41,33.1,33.1,0,0,0-5,4.64c-1.79,2-3.74,4.33-5.95,7.09l-2.25,2.82c-1.42,1.78-2.43,3.05-3.44,4.3-1.6,2-3.22,4-6.56,8-1.65,2-3.72,4.49-6.43,7.74l-10.2,12.26q-1.35,1.65-2.84,3.43l-2.85,3.42-.23.28c-1.22,1.47-2.25,2.79-3.15,3.94s-1.68,2.13-2.4,2.93a9.53,9.53,0,0,1-2.07,1.87,3.64,3.64,0,0,1-1.46.53,3.86,3.86,0,0,1-.75,0,3.26,3.26,0,0,1-1.31-.37,8,8,0,0,1-1.63-1.21,33.84,33.84,0,0,1-2.37-2.44c-.95-1.06-2.08-2.38-3.45-4s-3.29-4-5.46-6.64-4.7-5.77-7.69-9.42c-2.22-2.72-4.69-5.74-7.45-9.08q-2.55-3.1-5.44-6.59-1.57-1.92-3-3.72c-3-3.75-5.65-7.12-8.22-10a43.88,43.88,0,0,0-7.88-7.28,25.88,25.88,0,0,0-7.26-3.52,29.11,29.11,0,0,0-4.32-.95,26.63,26.63,0,0,0-4.2-.29,29.08,29.08,0,0,0-7.25,1,33.4,33.4,0,0,0-6.11,2.31c-.4.22-.78.43-1.13.64a21.33,21.33,0,0,0-5.17,3.9c-2,1.95-4.56,5-9.06,10.39-1.92,2.31-4.19,5.06-6.9,8.34l-1.25,1.53c-2.91,3.52-5.53,6.71-7.91,9.61l-8.53,10.39c-2.42,2.94-4.43,5.39-6.13,7.43s-3.07,3.67-4.2,5-2,2.26-2.72,3a6.79,6.79,0,0,1-2.55,1.88,4.74,4.74,0,0,1-1.82.07l-.18,0a3.06,3.06,0,0,1-1.38-.82,32,32,0,0,1-2.42-2.56c-.83-1-1.86-2.18-3.13-3.71l-4.63-5.62-6.83-8.26-1.6-1.93c-3-3.63-5.7-6.89-8.12-9.83l-9.94-12.09c-2.7-3.27-4.86-5.85-6.64-7.92-4.86-5.62-7-7.43-10-9-.79-.42-1.64-.83-2.61-1.29a34,34,0,0,0-9.36-2.41,25.1,25.1,0,0,0-10.22,1,28.26,28.26,0,0,0-8.23,4.29,57.77,57.77,0,0,0-10.42,10.53c-1.11,1.37-2.12,2.65-3.06,3.78q-2.88,3.49-5.52,6.65l-9.1,10.91-7.52,9-6.36,7.59c-1.88,2.25-3.52,4.22-5,6-2.53,3.07-4.43,5.44-5.86,7.32a38.09,38.09,0,0,0-3,4.45,9.44,9.44,0,0,0-1.06,2.81,13.25,13.25,0,0,0-.18,2.66,11.87,11.87,0,0,0,.21,2.28A12.68,12.68,0,0,0,90.67,227.45Z"/><path class="cls-2" d="M447,244.5a11,11,0,0,0-.77-2.63,15.16,15.16,0,0,0-1.47-2.61,16.57,16.57,0,0,0-2.07-2.39,15.29,15.29,0,0,0-2.55-2,13.26,13.26,0,0,0-2.07-1,11.56,11.56,0,0,0-2.23-.63,10.81,10.81,0,0,0-2.35-.16,11,11,0,0,0-2.43.4,9.82,9.82,0,0,0-2.16.76,11.72,11.72,0,0,0-2.69,2.17c-.85.86-1.92,2-3.3,3.59s-3.09,3.59-5.24,6.14c-1.9,2.27-4.15,5-6.82,8.2l-9.39,11.34L394,274.76l-8.85,10.68-4.18,5-4.46,5.37c-.25.29-.49.59-.74.89a7.41,7.41,0,0,1-.7.75,3,3,0,0,1-1.66.86,2.85,2.85,0,0,1-1.34-.19,6.83,6.83,0,0,1-1.64-1,24.33,24.33,0,0,1-3.13-2.86c-1.22-1.28-2.65-2.89-4.33-4.88-1.9-2.24-4.12-5-6.75-8.22s-5.67-7.08-9.2-11.49c-2.25-2.82-4.7-5.87-7.38-9.2-.28-.35-.56-.69-.83-1-3-3.76-5.69-7-8.1-9.92a98.66,98.66,0,0,0-8.66-9.31,30.19,30.19,0,0,0-7.86-5.39,23.87,23.87,0,0,0-6.39-1.86,38.6,38.6,0,0,0-6.54-.34l-1,.09A32.74,32.74,0,0,0,294.1,234a24.47,24.47,0,0,0-5.14,2.19,34.06,34.06,0,0,0-7.7,6.27c-2.51,2.63-5.11,5.81-8.17,9.58l-.73.9-8,9.87-7.41,9.08c-4.55,5.54-8.18,9.92-11.1,13.38s-5.13,6-6.82,7.85a37.64,37.64,0,0,1-4.22,4.14,3.3,3.3,0,0,1-2,.88c-.26,0-.51,0-.8,0a1.9,1.9,0,0,1-1-.46,21.7,21.7,0,0,1-2.83-2.86c-1-1.1-2.21-2.55-3.8-4.46s-3.57-4.28-6-7.21l-7-8.54L202,263.3c-1.4-1.68-2.86-3.44-4.39-5.3-1.41-1.69-2.73-3.34-4-4.94-2.75-3.46-5.24-6.66-7.8-9.45a35.27,35.27,0,0,0-10-8l-.36-.18a28.24,28.24,0,0,0-12-2.78,29.74,29.74,0,0,0-8.48,1.1,26.13,26.13,0,0,0-4.77,1.83,27.3,27.3,0,0,0-2.9,1.71c-4,2.69-6.94,6.23-9.93,9.89l-1.77,2.16q-3.84,4.62-7.33,8.77-4.76,5.65-8.88,10.49l-7.65,9c-3.64,4.26-6.8,8-9.5,11.25s-5,6.1-6.79,8.59c-1.2,1.64-2.22,3.14-3.06,4.52a28.85,28.85,0,0,0-2,3.81,14.19,14.19,0,0,0-.84,2.63,9,9,0,0,0-.21,2.38,8.21,8.21,0,0,0,.25,1.72,8.79,8.79,0,0,0,.6,1.67,12.3,12.3,0,0,0,.95,1.66,19.53,19.53,0,0,0,1.27,1.68c.6.72,1.28,1.45,2,2.21.28.28.57.57.87.85A16.39,16.39,0,0,0,97,321.7a9.5,9.5,0,0,0,2.61,1.24,6.39,6.39,0,0,0,2.57.22,8,8,0,0,0,2.61-.82,16.64,16.64,0,0,0,2.87-1.88,37.33,37.33,0,0,0,3.19-2.9c1.14-1.14,2.37-2.46,3.71-4,2.08-2.34,4.42-5.15,7.11-8.42s5.73-7,9.21-11.3q3.67-4.53,8-9.81l1.55-1.88c2.55-3.07,4.78-5.8,6.75-8.21,2.59-3.17,4.72-5.8,6.49-8s3.2-3.85,4.37-5.15a18.84,18.84,0,0,1,3.2-3,3.07,3.07,0,0,1,2.24-.62,3.87,3.87,0,0,1,1.22.47,8.28,8.28,0,0,1,1.09,1.05c.83.88,2.06,2.28,3.57,4,1.76,2,3.89,4.54,6.23,7.32s4.89,5.83,7.45,8.92c3.05,3.66,6.13,7.38,9,10.8s5.37,6.51,7.36,8.93l4.2,5.12c1.12,1.37,2.13,2.6,3.06,3.72a89.69,89.69,0,0,0,6.75,7.56,27.18,27.18,0,0,0,8,5.31l.9.34a31.26,31.26,0,0,0,10.31,2,27.47,27.47,0,0,0,6.28-.6,28,28,0,0,0,5.78-1.79c3.35-1.51,6.46-4,11-8.88,2.32-2.5,5-5.63,8.34-9.58s7.21-8.72,11.94-14.5l7.5-9.14q4.06-4.95,8.81-10.7l3.22-3.88.6-.73c1.51-1.85,2.61-3.27,3.59-4.25a6.34,6.34,0,0,1,1.5-1.14,3,3,0,0,1,1.54-.34,4.21,4.21,0,0,1,1.05.2c.16.05.3.08.43.13a3.53,3.53,0,0,1,1.41,1c.48.49,1.14,1.22,2.1,2.34s2.24,2.65,3.94,4.72,3.76,4.57,6.39,7.77l9.64,11.76,2.19,2.66,7.06,8.58c2.86,3.46,5.25,6.35,7.29,8.78,5.12,6.08,8,9.28,10.29,11.27a23.46,23.46,0,0,0,6.52,4l.09,0a35,35,0,0,0,8.63,2.32,25.31,25.31,0,0,0,7.61-.15,24.82,24.82,0,0,0,6.6-2.16,32.16,32.16,0,0,0,5.81-3.68,57.14,57.14,0,0,0,7.65-7.44c2.37-2.69,4.57-5.51,6.72-8.17.63-.78,1.25-1.55,1.88-2.3q3.6-4.33,6.81-8.17l7.71-9.23c3.66-4.36,6.83-8.14,9.58-11.44s5.07-6.09,7-8.49,3.48-4.32,4.76-6,2.26-3.06,3-4.23a15.08,15.08,0,0,0,1.93-3.93A6.78,6.78,0,0,0,447,244.5Z"/></g></g></svg>