<svg xmlns="http://www.w3.org/2000/svg" viewBox="0 0 514.74 514.74"><defs><style>.cls-1{fill:#bb86fc;}.cls-2{fill:#0c0c0c;}</style></defs><g id="Camada_2" data-name="Camada 2"><g id="Layer_1" data-name="Layer 1"><path class="cls-1" d="M439.36,75.38a257.37,257.37,0,0,0-364,364,257.37,257.37,0,0,0,364-364Zm-182,429.52c-136.49,0-247.53-111-247.53-247.53S120.89,9.85,257.38,9.85s247.52,111,247.52,247.52S393.86,504.9,257.38,504.9Z"/><path class="cls-1" d="M504.9,257.37c0,136.49-111,247.53-247.52,247.53S9.85,393.86,9.85,257.37,120.89,9.85,257.38,9.85,504.9,120.88,504.9,257.37Z"/><g id="_11" data-name="11"><path class="cls-2" d="M442.21,211.1a71.06,71.06,0,0,0-6.3-21.77,78.36,78.36,0,0,0-12.34-18.65,82.64,82.64,0,0,0-16.89-14.49,79.72,79.72,0,0,0-20.31-9.44,72.73,72.73,0,0,0-22.48-3.13,68.71,68.71,0,0,0-22.46,4.25,74.35,74.35,0,0,0-19.77,11A92.51,92.51,0,0,0,306,174.42q-3.19,4-6.19,8.51-1.35,2-2.66,4.21t-2.77,4.74c-3.18,5.64-6.24,11.76-9.18,18.26-2.68,5.91-5.26,12.13-7.74,18.59-2.33,6.07-4.57,12.36-6.73,18.79-2.07,6.2-4.06,12.53-6,18.94s-3.65,12.66-5.35,19.05c-1.65,6.2-3.22,12.42-4.71,18.61h0c-.51-3.48-1.16-7.27-2-11.31-.68-3.41-1.45-7-2.32-10.71s-1.88-7.77-2.95-11.82q-1.42-5.34-3.05-10.87c-1.48-5-3.07-10.1-4.78-15.21-1.66-4.95-3.42-9.92-5.27-14.83s-3.84-9.89-5.9-14.67c-2.14-5-4.37-9.84-6.68-14.48-2.5-5-5.1-9.8-7.77-14.22a121,121,0,0,0-9.61-13.83,67.76,67.76,0,0,0-7.36-7.8c-1.8-1.61-3.64-3.11-5.5-4.52a80.42,80.42,0,0,0-15.1-9.07,73.23,73.23,0,0,0-17-5.43,71.41,71.41,0,0,0-17.92-1.1A73.42,73.42,0,0,0,124,147.56a76.48,76.48,0,0,0-16.14,7.26,77.88,77.88,0,0,0-14.1,10.77,76.54,76.54,0,0,0-11.31,13.77,74.55,74.55,0,0,0-11.51,33.39c-.22,2.35-.34,4.73-.34,7.14a70.72,70.72,0,0,0,.83,10.61,78.71,78.71,0,0,0,4.71,17.17,77.83,77.83,0,0,0,8.48,15.8,61.17,61.17,0,0,0,7,8.44,12.23,12.23,0,0,0,6.4,3.34,11.39,11.39,0,0,0,5.86-.46,8.36,8.36,0,0,0,1.29-.56,9.5,9.5,0,0,0,2.15-1.54,11,11,0,0,0,.87-.94,11.52,11.52,0,0,0,1.24-1.88,13.13,13.13,0,0,0,.87-2.05,14.69,14.69,0,0,0,.55-2.12,15.16,15.16,0,0,0,.26-2.08,12.33,12.33,0,0,0-.34-4.23c-.93-3.23-3.45-5-6.91-10-.3-.43-.6-.89-.92-1.38a57.47,57.47,0,0,1-4.75-9.05,49.38,49.38,0,0,1-3.28-11.62,46.94,46.94,0,0,1-.29-12.22,48.76,48.76,0,0,1,2.8-11.91,53.45,53.45,0,0,1,5.47-10.8,56.52,56.52,0,0,1,17.2-16.8,50.79,50.79,0,0,1,9.28-4.55c.61-.22,1.23-.43,1.84-.63a47.68,47.68,0,0,1,11.83-2.22A48.41,48.41,0,0,1,155,169a52,52,0,0,1,11.49,3.67,57,57,0,0,1,10.68,6.3,61.06,61.06,0,0,1,6.74,5.84c.75.76,1.5,1.55,2.25,2.38a78.52,78.52,0,0,1,8.1,10.81,128,128,0,0,1,6.88,12.54c1.92,4,3.88,8.39,5.89,13.39,1.69,4.2,3.42,8.79,5.21,13.83q2,5.57,4,11.87c.24.72.48,1.46.71,2.2q2.1,6.54,4.29,13.94c1.22,4.15,2.48,8.5,3.77,13.08q2.5,8.9,5.21,18.94,2.57,9.47,5.36,20c2.79,10.51,5.78,21.84,9,34.1q-1,5.43-1.9,10.66c-1.07,6.25-2,12.27-2.89,18-.08.57-.15,1.12-.22,1.67a165.35,165.35,0,0,0-1.49,20.75c0,2.8.09,5.42.26,7.89a76.93,76.93,0,0,0,1.47,10.91c3,14.12,9.53,20.89,16.29,22.9a16.61,16.61,0,0,0,14.44-2.6c5.48-4,8-11,9.18-17.68a75.61,75.61,0,0,0,1-14.21c-.05-3.18-.26-6.45-.58-9.77-.29-2.95-.68-5.94-1.15-8.93q-.58-3.7-1.32-7.38c-1.19-5.95-2.66-11.77-4.26-17.16-1.49-5-3.11-9.72-4.73-13.76q.52-2.65,1.09-5.46c1.19-5.88,2.52-12.18,4-18.77,1.34-6,2.79-12.27,4.34-18.67,1.48-6.08,3.06-12.28,4.72-18.52s3.35-12.25,5.15-18.35,3.69-12.17,5.65-18.1c2-6.1,4.11-12.05,6.28-17.76,2.3-6,4.68-11.82,7.13-17.23A178.31,178.31,0,0,1,315.36,204c1.4-2.4,2.82-4.66,4.26-6.76q2.79-4.06,5.8-7.69a72.44,72.44,0,0,1,11.52-11.23A49.5,49.5,0,0,1,350.08,171a42.91,42.91,0,0,1,14.43-2.59h.35a53.42,53.42,0,0,1,14.35,2,52.27,52.27,0,0,1,14,6.26A53.72,53.72,0,0,1,413.41,200a50.27,50.27,0,0,1,4,14.44A47.25,47.25,0,0,1,412,242.93a53.82,53.82,0,0,1-7.67,10.69c-.64.69-1.21,1.37-1.73,2a13.85,13.85,0,0,0-2.68,5.1,8.22,8.22,0,0,0-.22,2.66,9.35,9.35,0,0,0,.66,2.78,15.37,15.37,0,0,0,1.6,3,28.18,28.18,0,0,0,2.6,3.25l.41.46c.65.69,1.27,1.31,1.87,1.85a13.91,13.91,0,0,0,2.18,1.68,6.68,6.68,0,0,0,2.13.89,5.26,5.26,0,0,0,2.2,0c1.89-.4,4-1.83,6.62-4.48,1.4-1.41,2.95-3.16,4.7-5.3A93.87,93.87,0,0,0,433,255a76.7,76.7,0,0,0,8.1-21.11A68.63,68.63,0,0,0,442.21,211.1Z"/></g></g></g></svg>