<svg xmlns="http://www.w3.org/2000/svg" viewBox="0 0 514.74 514.74"><defs><style>.cls-1{fill:#bb86fc;}.cls-2{fill:#0c0c0c;}</style></defs><g id="Camada_2" data-name="Camada 2"><g id="Layer_1" data-name="Layer 1"><path class="cls-1" d="M439.36,75.38a257.38,257.38,0,0,0-364,364,257.38,257.38,0,0,0,364-364Zm-182,429.52c-136.48,0-247.52-111-247.52-247.53S120.89,9.85,257.37,9.85s247.53,111,247.53,247.52S393.86,504.9,257.37,504.9Z"/><path class="cls-1" d="M504.9,257.37c0,136.49-111,247.53-247.53,247.53S9.85,393.86,9.85,257.37,120.89,9.85,257.37,9.85,504.9,120.88,504.9,257.37Z"/><path d="M105.77,264a55.81,55.81,0,0,0,12.11,13.73,56.77,56.77,0,0,0,15.72,9.05,60.24,60.24,0,0,0,35.85,2.06,57,57,0,0,0,16.8-7.18,55,55,0,0,0,13.64-12.25,58.55,58.55,0,0,0,9-15.94c.34-.9.67-1.81,1-2.75a65.68,65.68,0,0,0,2.6-15.05,57.86,57.86,0,0,0-1.88-18.08A56.14,56.14,0,0,0,203,201a57.37,57.37,0,0,0-5.81-7.31,59.12,59.12,0,0,0-22.5-15,55.86,55.86,0,0,0-9.29-2.56,53.91,53.91,0,0,0-7.81-.85h0q3.7-3.06,7.66-5.81a113.87,113.87,0,0,1,11.54-7,111.45,111.45,0,0,1,12.57-5.65q2.31-.85,4.65-1.62c2.62-.85,5.4-1.63,8.31-2.35,4.27-1.06,8.84-2,13.62-2.74,4.5-.73,9.18-1.32,14-1.79,4.62-.44,9.36-.77,14.16-1s9.45-.27,14.22-.21,9.49.23,14.19.53,9.5.76,14.12,1.34c4.77.59,9.44,1.34,13.94,2.23,4.75.95,9.32,2.06,13.63,3.34a105.2,105.2,0,0,1,11.43,4.1c.56.18,1.11.38,1.66.57A77,77,0,0,1,339.71,165a92.94,92.94,0,0,1,11.18,7.61,115.67,115.67,0,0,1,9.89,8.79c3.08,3.05,6,6.25,8.78,9.55,1.38,1.64,2.73,3.3,4,5l1.08,1.39c1,1.35,1.85,2.44,2.63,3.32a7.62,7.62,0,0,0,5.85,3c.44,0,.94.06,1.47.07s1.09,0,1.68,0,1.19,0,1.81-.08,1.26-.09,1.89-.17c.88-.1,1.77-.25,2.62-.43a18.39,18.39,0,0,0,2.41-.67,10.13,10.13,0,0,0,2-1,5.21,5.21,0,0,0,1.42-1.28c.63-.87.71-2.54.19-4.81a38.84,38.84,0,0,0-4.58-10.51,77,77,0,0,0-5.91-8.56,105.2,105.2,0,0,0-11.29-12.13,125.83,125.83,0,0,0-12.78-10.29,141.53,141.53,0,0,0-13.8-8.57,155.71,155.71,0,0,0-14.52-6.93c-4.7-2-9.7-3.78-15-5.42-1.28-.39-2.57-.78-3.89-1.16-3.58-1-7.41-1.95-11.43-2.8-4.9-1-10.09-1.94-15.51-2.68-5-.7-10.23-1.26-15.56-1.68-5.11-.41-10.32-.68-15.59-.8s-10.39-.11-15.61.06-10.42.5-15.59,1-10.47,1.16-15.57,2c-5.31.88-10.51,2-15.53,3.26q-6.37,1.65-12.31,3.76c-1,.37-2.06.75-3.08,1.14q-7.77,2.92-14.66,6.3a142.37,142.37,0,0,0-14.12,7.89,124.83,124.83,0,0,0-13.2,9.65,120.34,120.34,0,0,0-11.83,11.38A129.48,129.48,0,0,0,117.14,183a149.26,149.26,0,0,0-8.46,13.71q-1.17,2.13-2.29,4.33a112.28,112.28,0,0,0-4.74,10.4,67.07,67.07,0,0,0-4.41,17.17A51.7,51.7,0,0,0,98.51,247a58,58,0,0,0,2.66,8.07A60.5,60.5,0,0,0,105.77,264Zm16.31-32.66A30.77,30.77,0,0,1,123,227q.95-3.21,2.1-6.33a102.36,102.36,0,0,1,5.32-12l.46-.86a42.66,42.66,0,0,1,18-8,36.08,36.08,0,0,1,17.59.95,31.07,31.07,0,0,1,9.7,5.19,31.5,31.5,0,0,1,2.7,2.38,38.29,38.29,0,0,1,4.64,5.54,36.39,36.39,0,0,1,4.8,9.75,33.76,33.76,0,0,1,1.58,11,31.43,31.43,0,0,1-2.28,11,32.08,32.08,0,0,1-5.83,9.29,37.83,37.83,0,0,1-2.84,2.82,35.58,35.58,0,0,1-5.49,4,33.15,33.15,0,0,1-9.95,3.85,34.58,34.58,0,0,1-10.58.54,37.05,37.05,0,0,1-10.35-2.62,36.5,36.5,0,0,1-9.1-5.39,33.22,33.22,0,0,1-6.91-7.55,28.94,28.94,0,0,1-4-9.12A27.6,27.6,0,0,1,122.08,231.36Z"/><path d="M400.1,262.28a52.91,52.91,0,0,0-6.46-17.54,54.92,54.92,0,0,0-12-14.19A59.15,59.15,0,0,0,366.06,221a60.23,60.23,0,0,0-17.67-4.35A57.32,57.32,0,0,0,330,218a55.14,55.14,0,0,0-17,7.22,57.89,57.89,0,0,0-10.14,8.23,44.91,44.91,0,0,0-3.47,4,68.78,68.78,0,0,0-9,15.81A63.24,63.24,0,0,0,285.94,271a51.9,51.9,0,0,0,1.42,18.31,53,53,0,0,0,7.87,16.84,67.08,67.08,0,0,0,7.57,9,59.42,59.42,0,0,0,5,4.44,57.9,57.9,0,0,0,14.56,8.45,55.29,55.29,0,0,0,12.48,3.36,53.84,53.84,0,0,0,7.39.57,113.69,113.69,0,0,1-10.5,7.43,116.71,116.71,0,0,1-12,6.56,124.44,124.44,0,0,1-12.88,5.27c-.8.28-1.6.55-2.41.81-3.31,1.07-6.88,2.05-10.67,2.91-4.34,1-9,1.86-13.79,2.58-4.54.67-9.27,1.22-14.11,1.63-4.66.4-9.43.67-14.25.82q-4.19.13-8.39.13c-2,0-4,0-5.91-.06q-7.47-.15-14.27-.66-7.45-.57-14.17-1.52c-4.94-.69-9.58-1.53-14-2.5-4.86-1.07-9.38-2.3-13.61-3.65a128.33,128.33,0,0,1-13-5,109.34,109.34,0,0,1-12.21-6.36,100.18,100.18,0,0,1-18.67-14.54c-.76-.75-1.48-1.48-2.16-2.18a113,113,0,0,1-8.43-9.75c-2-2.55-3.37-4.59-4.63-6.16a12.37,12.37,0,0,0-3.52-3.28,7.28,7.28,0,0,0-1.84-.63,16,16,0,0,0-2.5-.35,25.34,25.34,0,0,0-5.89.29,18.7,18.7,0,0,0-2.18.48,13.81,13.81,0,0,0-2,.69,9.22,9.22,0,0,0-1.64.93,5.53,5.53,0,0,0-1.2,1.16c-.61.85-.73,2.44-.31,4.61.72,3.73,3,9.15,7.22,15.37A93.51,93.51,0,0,0,119,340a116.76,116.76,0,0,0,12.35,10.93A133,133,0,0,0,144.9,360a149.13,149.13,0,0,0,14.42,7.4q7,3.13,15,5.8c2.36.78,4.77,1.53,7.25,2.24s5.29,1.42,8.1,2.07c4.89,1.12,10.11,2.1,15.57,2.94,5,.76,10.27,1.4,15.65,1.88,5.12.47,10.36.8,15.67,1s10.43.22,15.69.11,10.48-.38,15.69-.8,10.52-1,15.66-1.81c5.34-.81,10.57-1.82,15.62-3a145.36,145.36,0,0,0,15.06-4.45l.54-.2c5.23-1.89,10.15-3.92,14.81-6.1a147.11,147.11,0,0,0,14.31-7.65A128.26,128.26,0,0,0,357.36,350a120.09,120.09,0,0,0,12.13-11.2A127,127,0,0,0,380,326.11a148.11,148.11,0,0,0,8.73-13.69q1.74-3.06,3.36-6.25a91.76,91.76,0,0,0,3.9-8.66,74.2,74.2,0,0,0,4.46-17A58.79,58.79,0,0,0,400.1,262.28Zm-22.83,15.19a10.54,10.54,0,0,1-.22,1.25A90.61,90.61,0,0,1,373.93,289c-1,2.71-2.14,5.38-3.4,8h0a39.9,39.9,0,0,1-12.74,8.14A38.63,38.63,0,0,1,336,307.43a32.9,32.9,0,0,1-13.89-6.29,35,35,0,0,1-7.51-7.91,35.41,35.41,0,0,1-6.24-20.53c0-.11,0-.22,0-.33A32.88,32.88,0,0,1,317,252a32.76,32.76,0,0,1,8.73-6.77,34.06,34.06,0,0,1,10-3.47,38.86,38.86,0,0,1,10.48-.46c1,.09,2.1.22,3.17.39a30.29,30.29,0,0,1,7.28,2.16,34.19,34.19,0,0,1,8.93,5.71,34.69,34.69,0,0,1,6.57,7.74,30.47,30.47,0,0,1,3.86,9.33C376.76,269.94,377.75,273.86,377.27,277.47Z"/><path class="cls-2" d="M105.77,264a55.81,55.81,0,0,0,12.11,13.73,56.77,56.77,0,0,0,15.72,9.05,60.24,60.24,0,0,0,35.85,2.06,57,57,0,0,0,16.8-7.18,55,55,0,0,0,13.64-12.25,58.55,58.55,0,0,0,9-15.94c.34-.9.67-1.81,1-2.75a65.68,65.68,0,0,0,2.6-15.05,57.86,57.86,0,0,0-1.88-18.08A56.14,56.14,0,0,0,203,201a57.37,57.37,0,0,0-5.81-7.31,59.12,59.12,0,0,0-22.5-15,55.86,55.86,0,0,0-9.29-2.56,53.91,53.91,0,0,0-7.81-.85h0q3.7-3.06,7.66-5.81a113.87,113.87,0,0,1,11.54-7,111.45,111.45,0,0,1,12.57-5.65q2.31-.85,4.65-1.62c2.62-.85,5.4-1.63,8.31-2.35,4.27-1.06,8.84-2,13.62-2.74,4.5-.73,9.18-1.32,14-1.79,4.62-.44,9.36-.77,14.16-1s9.45-.27,14.22-.21,9.49.23,14.19.53,9.5.76,14.12,1.34c4.77.59,9.44,1.34,13.94,2.23,4.75.95,9.32,2.06,13.63,3.34a105.2,105.2,0,0,1,11.43,4.1c.56.18,1.11.38,1.66.57A77,77,0,0,1,339.71,165a92.94,92.94,0,0,1,11.18,7.61,115.67,115.67,0,0,1,9.89,8.79c3.08,3.05,6,6.25,8.78,9.55,1.38,1.64,2.73,3.3,4,5l1.08,1.39c1,1.35,1.85,2.44,2.63,3.32a7.62,7.62,0,0,0,5.85,3c.44,0,.94.06,1.47.07s1.09,0,1.68,0,1.19,0,1.81-.08,1.26-.09,1.89-.17c.88-.1,1.77-.25,2.62-.43a18.39,18.39,0,0,0,2.41-.67,10.13,10.13,0,0,0,2-1,5.21,5.21,0,0,0,1.42-1.28c.63-.87.71-2.54.19-4.81a38.84,38.84,0,0,0-4.58-10.51,77,77,0,0,0-5.91-8.56,105.2,105.2,0,0,0-11.29-12.13,125.83,125.83,0,0,0-12.78-10.29,141.53,141.53,0,0,0-13.8-8.57,155.71,155.71,0,0,0-14.52-6.93c-4.7-2-9.7-3.78-15-5.42-1.28-.39-2.57-.78-3.89-1.16-3.58-1-7.41-1.95-11.43-2.8-4.9-1-10.09-1.94-15.51-2.68-5-.7-10.23-1.26-15.56-1.68-5.11-.41-10.32-.68-15.59-.8s-10.39-.11-15.61.06-10.42.5-15.59,1-10.47,1.16-15.57,2c-5.31.88-10.51,2-15.53,3.26q-6.37,1.65-12.31,3.76c-1,.37-2.06.75-3.08,1.14q-7.77,2.92-14.66,6.3a142.37,142.37,0,0,0-14.12,7.89,124.83,124.83,0,0,0-13.2,9.65,120.34,120.34,0,0,0-11.83,11.38A129.48,129.48,0,0,0,117.14,183a149.26,149.26,0,0,0-8.46,13.71q-1.17,2.13-2.29,4.33a112.28,112.28,0,0,0-4.74,10.4,67.07,67.07,0,0,0-4.41,17.17A51.7,51.7,0,0,0,98.51,247a58,58,0,0,0,2.66,8.07A60.5,60.5,0,0,0,105.77,264Zm16.31-32.66A30.77,30.77,0,0,1,123,227q.95-3.21,2.1-6.33a102.36,102.36,0,0,1,5.32-12l.46-.86a42.66,42.66,0,0,1,18-8,36.08,36.08,0,0,1,17.59.95,31.07,31.07,0,0,1,9.7,5.19,31.5,31.5,0,0,1,2.7,2.38,38.29,38.29,0,0,1,4.64,5.54,36.39,36.39,0,0,1,4.8,9.75,33.76,33.76,0,0,1,1.58,11,31.43,31.43,0,0,1-2.28,11,32.08,32.08,0,0,1-5.83,9.29,37.83,37.83,0,0,1-2.84,2.82,35.58,35.58,0,0,1-5.49,4,33.15,33.15,0,0,1-9.95,3.85,34.58,34.58,0,0,1-10.58.54,37.05,37.05,0,0,1-10.35-2.62,36.5,36.5,0,0,1-9.1-5.39,33.22,33.22,0,0,1-6.91-7.55,28.94,28.94,0,0,1-4-9.12A27.6,27.6,0,0,1,122.08,231.36Z"/><path class="cls-2" d="M400.1,262.28a52.91,52.91,0,0,0-6.46-17.54,54.92,54.92,0,0,0-12-14.19A59.15,59.15,0,0,0,366.06,221a60.23,60.23,0,0,0-17.67-4.35A57.32,57.32,0,0,0,330,218a55.14,55.14,0,0,0-17,7.22,57.89,57.89,0,0,0-10.14,8.23,44.91,44.91,0,0,0-3.47,4,68.78,68.78,0,0,0-9,15.81A63.24,63.24,0,0,0,285.94,271a51.9,51.9,0,0,0,1.42,18.31,53,53,0,0,0,7.87,16.84,67.08,67.08,0,0,0,7.57,9,59.42,59.42,0,0,0,5,4.44,57.9,57.9,0,0,0,14.56,8.45,55.29,55.29,0,0,0,12.48,3.36,53.84,53.84,0,0,0,7.39.57,113.69,113.69,0,0,1-10.5,7.43,116.71,116.71,0,0,1-12,6.56,124.44,124.44,0,0,1-12.88,5.27c-.8.28-1.6.55-2.41.81-3.31,1.07-6.88,2.05-10.67,2.91-4.34,1-9,1.86-13.79,2.58-4.54.67-9.27,1.22-14.11,1.63-4.66.4-9.43.67-14.25.82q-4.19.13-8.39.13c-2,0-4,0-5.91-.06q-7.47-.15-14.27-.66-7.45-.57-14.17-1.52c-4.94-.69-9.58-1.53-14-2.5-4.86-1.07-9.38-2.3-13.61-3.65a128.33,128.33,0,0,1-13-5,109.34,109.34,0,0,1-12.21-6.36,100.18,100.18,0,0,1-18.67-14.54c-.76-.75-1.48-1.48-2.16-2.18a113,113,0,0,1-8.43-9.75c-2-2.55-3.37-4.59-4.63-6.16a12.37,12.37,0,0,0-3.52-3.28,7.28,7.28,0,0,0-1.84-.63,16,16,0,0,0-2.5-.35,25.34,25.34,0,0,0-5.89.29,18.7,18.7,0,0,0-2.18.48,13.81,13.81,0,0,0-2,.69,9.22,9.22,0,0,0-1.64.93,5.53,5.53,0,0,0-1.2,1.16c-.61.85-.73,2.44-.31,4.61.72,3.73,3,9.15,7.22,15.37A93.51,93.51,0,0,0,119,340a116.76,116.76,0,0,0,12.35,10.93A133,133,0,0,0,144.9,360a149.13,149.13,0,0,0,14.42,7.4q7,3.13,15,5.8c2.36.78,4.77,1.53,7.25,2.24s5.29,1.42,8.1,2.07c4.89,1.12,10.11,2.1,15.57,2.94,5,.76,10.27,1.4,15.65,1.88,5.12.47,10.36.8,15.67,1s10.43.22,15.69.11,10.48-.38,15.69-.8,10.52-1,15.66-1.81c5.34-.81,10.57-1.82,15.62-3a145.36,145.36,0,0,0,15.06-4.45l.54-.2c5.23-1.89,10.15-3.92,14.81-6.1a147.11,147.11,0,0,0,14.31-7.65A128.26,128.26,0,0,0,357.36,350a120.09,120.09,0,0,0,12.13-11.2A127,127,0,0,0,380,326.11a148.11,148.11,0,0,0,8.73-13.69q1.74-3.06,3.36-6.25a91.76,91.76,0,0,0,3.9-8.66,74.2,74.2,0,0,0,4.46-17A58.79,58.79,0,0,0,400.1,262.28Zm-22.83,15.19a10.54,10.54,0,0,1-.22,1.25A90.61,90.61,0,0,1,373.93,289c-1,2.71-2.14,5.38-3.4,8h0a39.9,39.9,0,0,1-12.74,8.14A38.63,38.63,0,0,1,336,307.43a32.9,32.9,0,0,1-13.89-6.29,35,35,0,0,1-7.51-7.91,35.41,35.41,0,0,1-6.24-20.53c0-.11,0-.22,0-.33A32.88,32.88,0,0,1,317,252a32.76,32.76,0,0,1,8.73-6.77,34.06,34.06,0,0,1,10-3.47,38.86,38.86,0,0,1,10.48-.46c1,.09,2.1.22,3.17.39a30.29,30.29,0,0,1,7.28,2.16,34.19,34.19,0,0,1,8.93,5.71,34.69,34.69,0,0,1,6.57,7.74,30.47,30.47,0,0,1,3.86,9.33C376.76,269.94,377.75,273.86,377.27,277.47Z"/></g></g></svg>