<svg xmlns="http://www.w3.org/2000/svg" viewBox="0 0 514.74 514.74"><defs><style>.cls-1{fill:#bb86fc;}.cls-2{fill:#0c0c0c;}</style></defs><g id="Camada_2" data-name="Camada 2"><g id="Layer_1" data-name="Layer 1"><path class="cls-1" d="M439.36,75.38a257.38,257.38,0,0,0-364,364,257.38,257.38,0,0,0,364-364Zm-182,429.52c-136.49,0-247.52-111-247.52-247.53S120.88,9.85,257.37,9.85s247.53,111,247.53,247.52S393.86,504.9,257.37,504.9Z"/><path class="cls-1" d="M504.9,257.37c0,136.49-111,247.53-247.53,247.53S9.85,393.86,9.85,257.37,120.88,9.85,257.37,9.85,504.9,120.89,504.9,257.37Z"/><path class="cls-2" d="M435.44,279.85a64.3,64.3,0,0,0-6-23.71c-.09-.17-.17-.35-.25-.52a49.33,49.33,0,0,0-16.18-19.06,48.49,48.49,0,0,0-9.51-5.1l-1.54-.6a63.51,63.51,0,0,0-12.77-3.2,68.76,68.76,0,0,0-23.87.75A70.7,70.7,0,0,0,343,237.24a73.31,73.31,0,0,0-11.41,8.59c-.13-1.57-.24-3.13-.35-4.69-.18-2.45-.33-4.9-.47-7.33-.34-5.76-.59-11.45-.81-17-.23-5.89-.42-11.68-.63-17.34-.22-6-.47-11.88-.8-17.58-.36-6.17-.82-12.14-1.46-17.88a172,172,0,0,0-3-18.24,94.84,94.84,0,0,0-6-18.57,60.57,60.57,0,0,0-11.8-17.55c-.1-.1-.21-.2-.31-.31a43.77,43.77,0,0,0-20.43-11.23,48.78,48.78,0,0,0-22.49-.25,47.34,47.34,0,0,0-6.39,1.93,50,50,0,0,0-13.78,8.11,69.3,69.3,0,0,0-13.64,15.45,117.4,117.4,0,0,0-9.15,16.83c-2.41,5.38-4.62,11.12-6.65,17.17-1.86,5.52-3.58,11.29-5.18,17.25-.67,2.48-1.31,5-1.94,7.53-.13-.64-.25-1.28-.38-1.92s-.27-1.38-.42-2.08c-.49-2.41-1-4.83-1.53-7.24-.5-2.26-1-4.51-1.55-6.75-.86-3.57-1.78-7.1-2.77-10.56s-2-6.84-3.2-10.12c-1.22-3.45-2.52-6.79-3.95-10a90.39,90.39,0,0,0-4.7-9.16,62.88,62.88,0,0,0-6.39-9,44.16,44.16,0,0,0-9-8.13,37.14,37.14,0,0,0-11.94-5.25,43.16,43.16,0,0,0-12.37-1.11c-1.37.06-2.76.18-4.19.36a53.56,53.56,0,0,0-7.6,1.83,63.34,63.34,0,0,0-10.15,4.28,78.17,78.17,0,0,0-9,5.5,99.28,99.28,0,0,0-8,6.28c-2.48,2.16-4.87,4.44-7.17,6.78s-4.46,4.72-6.55,7.14c-1.66,1.93-3.27,3.88-4.81,5.83-.51.66-1,1.29-1.42,1.9-2.35,3.25-3.86,5.91-4.19,8.37a7.09,7.09,0,0,0,.82,4.49,12.66,12.66,0,0,0,2,2.63,25.73,25.73,0,0,0,2.27,2.1,15.08,15.08,0,0,0,1.39,1.05l.19.11,1.61,1.05c.61.37,1.15.7,1.69,1a9.29,9.29,0,0,0,1.62.65,9.42,9.42,0,0,0,1.8.35,17.73,17.73,0,0,0,2.26.07,9.38,9.38,0,0,0,4.59-2c1.56-1.3,2.64-3.09,4.14-5.21.33-.47.68-1,1.07-1.46q1.81-2.29,3.83-4.64c1.73-2,3.56-4,5.47-6s3.75-3.7,5.73-5.43a75.46,75.46,0,0,1,6-4.73,54.52,54.52,0,0,1,6.12-3.83,42.51,42.51,0,0,1,4-1.93c.72-.27,1.42-.49,2.12-.69a21.22,21.22,0,0,1,5.54-.87,14.87,14.87,0,0,1,5,.77,15.05,15.05,0,0,1,3.82,1.92,20.7,20.7,0,0,1,3.9,3.52,35.16,35.16,0,0,1,3.77,5.32,62,62,0,0,1,3.29,6.58,116.38,116.38,0,0,1,4.3,11.83c1.25,4.05,2.47,8.53,3.68,13.48s2.41,10.5,3.61,16.48l.12.59c1.12,5.81,2.07,11.18,2.93,16.45,1.39,8.54,2.53,16.83,3.75,26.35l.84,6.74q1.5,12.12,2.82,24.22l-.06.36c-.91,5.62-1.81,11.44-2.67,17.19-.95,6.34-1.83,12.6-2.59,18.42-1,7.55-1.75,14.34-2.14,19.58-.19,2.5-.29,4.66-.29,6.36,0,6.42,1.55,12.75,4.7,17.38,3.68,5.42,9.56,8.53,17.72,6.78l.09-.29-.09.29a16.16,16.16,0,0,0,8.81-5c7-7.67,5.91-21.08,5.92-24.57v-.91c0-4.25-.16-9.28-.49-15.25s-.81-12.73-1.5-20.64c-.51-5.81-1.12-12.2-1.86-19.24.61-4.3,1.26-8.66,1.94-13.05.86-5.6,1.79-11.25,2.77-16.9s2-11.25,3.15-16.82,2.31-11.1,3.57-16.52,2.65-10.93,4.09-16.17c1.5-5.43,3.09-10.68,4.78-15.68,1.78-5.27,3.66-10.26,5.66-14.9.68-1.57,1.37-3.11,2.07-4.6a66.09,66.09,0,0,1,5.07-8.72,45.31,45.31,0,0,1,9-9.88,29.88,29.88,0,0,1,9.69-5.26,22.25,22.25,0,0,1,11.3-.65,21.28,21.28,0,0,1,9.53,4.79c.5.44,1,.89,1.46,1.38a29.4,29.4,0,0,1,5.74,9.23,75.91,75.91,0,0,1,4.13,14.41c.95,4.83,1.69,10.15,2.28,15.83.55,5.21,1,10.73,1.32,16.48.33,5.44.59,11.08.83,16.86.24,5.61.45,11.35.68,17.16s.47,11.62.77,17.46.65,11.71,1.09,17.51c.57,7.37,1.28,14.65,2.22,21.7-2.91,5.09-5.59,10.33-8.16,15.65-3,6.22-5.85,12.53-8.74,18.78s-5.7,12.18-8.77,18a161.63,161.63,0,0,1-9.9,16.65,99.21,99.21,0,0,1-11.81,14.33c-1,1-2,1.89-3,2.8A76.39,76.39,0,0,1,232,376.35a90.77,90.77,0,0,1-18,3.82,130.77,130.77,0,0,1-19,.58c-7-.25-12.77-.84-16.65-.79a16.9,16.9,0,0,0-2.46.2,9.69,9.69,0,0,0-5.19,2.28,7.67,7.67,0,0,0-1,1.1,10.65,10.65,0,0,0-.85,1.29,13.35,13.35,0,0,0-.68,1.48,14.34,14.34,0,0,0-.52,1.64,23.18,23.18,0,0,0-.6,3.13c-.06.42-.1.84-.14,1.27a18.08,18.08,0,0,0,0,2.06,11.85,11.85,0,0,0,.5,3,7.72,7.72,0,0,0,1.17,2.33,8.52,8.52,0,0,0,3.35,2.62c3.23,1.51,7.82,1.94,13.2,2.44,3.08.28,6.14.49,9.18.6a141,141,0,0,0,22.54-.92,117.68,117.68,0,0,0,22.78-5.09,103.39,103.39,0,0,0,21.51-10,101.13,101.13,0,0,0,18.59-14.7,110.45,110.45,0,0,0,9.9-11.34q2.43-3.22,4.67-6.55a197.08,197.08,0,0,0,11.2-19c3.31-6.36,6.33-12.78,9.23-19.11,1.9-4.14,3.74-8.24,5.57-12.25v0c1.2,2.59,2.42,5,3.66,7.25a67.76,67.76,0,0,0,12.07,16.14,58,58,0,0,0,18.68,11.93c.86.35,1.73.7,2.61,1a73.64,73.64,0,0,0,21,4.24,58.62,58.62,0,0,0,8.11-.2,49.71,49.71,0,0,0,16.92-4.68c1.17-.56,2.31-1.17,3.42-1.82a53,53,0,0,0,16-14.67,66.46,66.46,0,0,0,9.73-19.78c.22-.75.44-1.5.64-2.26A74.45,74.45,0,0,0,435.44,279.85ZM206.2,344.79a.5.5,0,0,1,0-.13h0Zm-.21.82,0-.16Zm.11-.38a1.24,1.24,0,0,1,0-.16A1.24,1.24,0,0,0,206.1,345.23Zm.34-1.54,0,.09Zm-.1.5,0,.13Zm.29-1.57v-.07h0Zm-.11.61,0-.09Zm.34-2v0Zm-.11.67v0Zm1-7.38c0-.35.09-.7.14-1.06v0C207.86,333.88,207.82,334.21,207.77,334.54Zm-.22,1.75c.06-.44.12-.9.18-1.37C207.67,335.39,207.61,335.85,207.55,336.29Zm.64-5.16.09-.8v0Zm-.19,1.59.09-.78Zm.48-4.06c0,.22,0,.43-.08.64C208.43,329.09,208.45,328.88,208.48,328.66Zm.12-1.09c0-.23.05-.44.08-.67v0C208.65,327.14,208.63,327.35,208.6,327.57Zm.19-1.67c0-.27.07-.54.1-.81C208.86,325.36,208.83,325.63,208.79,325.9Zm5.61-47.81c-.29,2.38-.6,4.83-.9,7.3l-.27,2.11c-.08.7-.17,1.41-.26,2.11s-.17,1.42-.26,2.12-.18,1.41-.26,2.11-.19,1.48-.28,2.19c.55-4.7,1.14-9.6,1.78-14.67.39-3.12.8-6.32,1.23-9.55C214.93,273.82,214.67,275.93,214.4,278.09Zm197.91,11.62A51.41,51.41,0,0,1,411,297.8a44.51,44.51,0,0,1-4.6,11.73c-.58,1-1.2,2-1.86,2.92a31.43,31.43,0,0,1-7.77,7.79l0,0a27.43,27.43,0,0,1-3.3,1.66,35.65,35.65,0,0,1-11,2.66c-1.09.09-2.21.13-3.35.13a36.88,36.88,0,0,1-13.26-2.54c-.89-.35-1.77-.75-2.66-1.18a39.43,39.43,0,0,1-11.57-8.95A64.51,64.51,0,0,1,340,293.22a69.87,69.87,0,0,1-4.53-16.16,84.05,84.05,0,0,1,6.89-9.17,51.71,51.71,0,0,1,12.71-10.73,43.49,43.49,0,0,1,15.15-5.38,58.15,58.15,0,0,1,16-.24,43.08,43.08,0,0,1,4.81.8,26,26,0,0,1,8.24,3.22c3.35,2.09,6.46,5.34,9,10.64.45,1,.89,2,1.31,3.07a44.67,44.67,0,0,1,2.7,12.11A51.47,51.47,0,0,1,412.31,289.71Z"/></g></g></svg>