<svg xmlns="http://www.w3.org/2000/svg" viewBox="0 0 514.74 514.74"><defs><style>.cls-1{fill:#bb86fc;}.cls-2{fill:#0c0c0c;}</style></defs><g id="Camada_2" data-name="Camada 2"><g id="Layer_1" data-name="Layer 1"><path class="cls-1" d="M439.36,75.38a257.37,257.37,0,0,0-364,364,257.37,257.37,0,0,0,364-364Zm-182,429.52c-136.49,0-247.53-111-247.53-247.53S120.89,9.85,257.38,9.85s247.52,111,247.52,247.52S393.86,504.9,257.38,504.9Z"/><path class="cls-1" d="M257.38,9.85c-136.49,0-247.53,111-247.53,247.52s111,247.53,247.53,247.53,247.52-111,247.52-247.53S393.86,9.85,257.38,9.85Zm182.38,373c-1.54,1.72-3.26,3.65-5.17,5.87l-.63.73c-1.63,1.9-3.15,3.67-4.57,5.28a78.55,78.55,0,0,1-6.25,6.55,18.6,18.6,0,0,1-4.48,3.17,7.59,7.59,0,0,1-3.29.81,7.43,7.43,0,0,1-2.14-.36,13.66,13.66,0,0,1-2.37-1,17.71,17.71,0,0,1-4.49-3.5q-.37-.42-.72-.84c-.23-.29-.45-.57-.65-.87s-.39-.59-.56-.89-.33-.61-.47-.92c-1.1-2.46-1-4.57.55-7.47a31.74,31.74,0,0,1,3-4.33c1.19-1.53,2.65-3.25,4.41-5.25,1.55-1.78,3.33-3.76,5.37-6l.48-.53a49.78,49.78,0,0,1-15.38-3.79c-.66-.29-1.32-.58-2-.9a83.7,83.7,0,0,1-10.75-6.2,75.5,75.5,0,0,1-13.78-12.1,77.81,77.81,0,0,1-10.37-14.81,95.55,95.55,0,0,1-6.86-16.07A127.4,127.4,0,0,1,354.53,303c-1-5.31-1.69-10.75-2.18-16.28-.48-5.29-.75-10.67-.87-16.07s-.08-10.55,0-15.83.35-10.45.64-15.62.62-10.35,1-15.41.73-10.26,1.06-15.22c.35-5.15.66-10.17.87-15,.24-5.13.37-10,.34-14.7a134.35,134.35,0,0,0-.78-14.14A60,60,0,0,0,351.9,152c-.14-.38-.27-.77-.41-1.14a30.13,30.13,0,0,0-4.56-8.16,19.27,19.27,0,0,0-7.37-5.74,15.76,15.76,0,0,0-9.17-1,17.46,17.46,0,0,0-7.38,3.32,19.72,19.72,0,0,0-2,1.72,40.86,40.86,0,0,0-5.56,7.23,96.39,96.39,0,0,0-6.24,12.08c-1.8,4.1-3.56,8.59-5.26,13.35-1.6,4.46-3.15,9.17-4.67,14s-2.91,9.61-4.32,14.55-2.75,9.81-4.08,14.73-2.66,9.9-4,14.73c-.08.31-.17.63-.26.94q-1.92,7.19-3.73,13.76c-1.85,6.76-2.22,2.1,1.72,27.49,1.1,7.13,2.2,14.42,2.95,21.48.56,5.09.94,10.07,1,14.76a71.16,71.16,0,0,1-1.17,15.76c-4.1,19.62-21,22-31.71,11.69a28.83,28.83,0,0,1-6.36-9.37,39,39,0,0,1-3-14.37c-.24-6.12.44-13.61,2.16-23.31.92-5.23,2.14-11.09,3.69-17.73,1.24-5.33,2.67-11.15,4.33-17.55l1.2-4.59c-.66-6.63-2.11-15.74-3.85-26.23-1.15-6.9-2.42-14.39-3.69-22.15-.07-.39-.13-.78-.2-1.19-.78-4.79-1.67-10.42-2.81-16.33-.82-4.29-1.77-8.73-2.9-13.09a111.91,111.91,0,0,0-4.92-15.08A47.23,47.23,0,0,0,232.08,144c-.05-.06-.11-.12-.16-.19a18.5,18.5,0,0,0-6.45-5,10.57,10.57,0,0,0-7.12-.55,17.28,17.28,0,0,0-7.78,5.09,39.36,39.36,0,0,0-5.72,8.13q-1.17,2.12-2.2,4.46c-1.07,2.41-2.21,5.19-3.4,8.26-1.55,4-3.2,8.56-4.9,13.5-1.49,4.31-3,8.92-4.55,13.77-1.43,4.46-2.86,9.13-4.29,13.93-1.36,4.57-2.73,9.25-4.07,14s-2.6,9.35-3.86,14.09-2.47,9.44-3.64,14.15-2.33,9.51-3.41,14.18c-1.94,8.4-1.83,2.67,1.46,21.72a231.1,231.1,0,0,1,3.26,26.13,105.76,105.76,0,0,1,0,11.94,58.16,58.16,0,0,1-1.52,10.44c-2.36,9.54-8,17.89-17.7,17.89a16.9,16.9,0,0,1-8.11-1.86c-5.36-2.89-8.18-8.93-9.37-16.57a73.17,73.17,0,0,1-.66-13.33,155.26,155.26,0,0,1,1.5-16.47c.71-5.18,1.61-10.32,2.52-15.16,1-5.07,1.94-9.81,2.74-13.88.06-.34.13-.67.2-1,.25-1.22.52-2.55.83-4-1.22-7.63-2.2-16.71-3.16-26.49-.85-8.75-1.7-18.06-2.68-27.35-.64-6.1-1.35-12.19-2.17-18.12-.6-4.33-1.26-8.59-2-12.69-.88-5-1.89-9.75-3-14.18a102.2,102.2,0,0,0-3.62-11.47,42.93,42.93,0,0,0-7.11-12.68,17.91,17.91,0,0,0-6.52-4.94,14.29,14.29,0,0,0-7.3-1,20.91,20.91,0,0,0-5.9,1.61c-.62.26-1.21.53-1.78.83a27.94,27.94,0,0,0-7.91,6.1A64.07,64.07,0,0,0,86,156.28c-2.71,4.23-5.07,8-8.34,9.62a8.23,8.23,0,0,1-3.77.9,11.84,11.84,0,0,1-1.75-.13,17.49,17.49,0,0,1-1.84-.35,18,18,0,0,1-1.85-.58,16.77,16.77,0,0,1-1.79-.79,14.81,14.81,0,0,1-1.55-.89A13.18,13.18,0,0,1,63.71,163a10.29,10.29,0,0,1-1.19-1.19,8.87,8.87,0,0,1-.91-1.32,7,7,0,0,1-.53-4.19c.41-3.48,2.32-8.15,5.43-13.08a67.35,67.35,0,0,1,9.68-12,61,61,0,0,1,13-9.85,42.93,42.93,0,0,1,17-5.5,36.77,36.77,0,0,1,18.3,3.07,46.19,46.19,0,0,1,5.57,3,44.6,44.6,0,0,1,8.79,7.75,63.69,63.69,0,0,1,9.5,14.62,104.79,104.79,0,0,1,5.47,14.12c1.19,3.84,2.24,7.8,3.14,11.84.83,3.71,1.56,7.48,2.19,11.27.51,3.05,1,6.12,1.38,9.19.34,2.54.65,5.08.93,7.6.18,1.59.36,3.18.51,4.76.43-1.45.85-2.91,1.27-4.36,1.44-4.84,2.92-9.68,4.43-14.4,1.56-4.92,3.17-9.73,4.79-14.36,1.76-5,3.54-9.83,5.35-14.32,2.11-5.27,4.24-10.12,6.37-14.34,3-6,6-10.79,8.92-13.8.66-.63,1.32-1.23,2-1.81a44.34,44.34,0,0,1,17.17-9.5,34,34,0,0,1,21.37.88,39.57,39.57,0,0,1,16,11.59c.12.15.23.3.35.44a68.18,68.18,0,0,1,9.56,15.8,122.43,122.43,0,0,1,5.77,16c.92,3.17,1.75,6.39,2.5,9.63.91,3.91,1.72,7.83,2.45,11.71q.65,3.49,1.23,6.92c.45,2.67.86,5.3,1.27,7.85.1-.37.2-.72.31-1.09l.57-2c1.16-4,2.4-8.36,3.76-12.85,1.48-4.9,3.1-10,4.88-15.06s3.75-10.17,5.94-15.07a117.37,117.37,0,0,1,7.88-14.95A62.75,62.75,0,0,1,308,121.83a37.53,37.53,0,0,1,12.15-7.13,36.71,36.71,0,0,1,7.43-1.68,41.75,41.75,0,0,1,20.44,2.81,42.27,42.27,0,0,1,16.64,12,39.93,39.93,0,0,1,2.94,3.94,53.74,53.74,0,0,1,6.15,13.31,91.85,91.85,0,0,1,3.53,17c.62,5.21.94,10.68,1.05,16.37.1,5.14,0,10.44-.16,15.88-.17,5.1-.44,10.3-.76,15.58-.3,5.06-.65,10.19-1,15.35s-.66,10.11-.95,15.17-.51,10.05-.66,15-.2,10-.13,14.85.27,9.83.66,14.61,1,9.59,1.76,14.19c.08.45.15.9.24,1.35a104,104,0,0,0,3.3,12,79.27,79.27,0,0,0,5.25,12,59.58,59.58,0,0,0,7,10.29,48.94,48.94,0,0,0,9.11,8.28,46.31,46.31,0,0,0,12.5,6.12c-1.11-1.19-2.2-2.41-3.25-3.63a70.3,70.3,0,0,1-4.76-6,27.75,27.75,0,0,1-2.64-4.57,7.47,7.47,0,0,1-.73-4.65,8.38,8.38,0,0,1,.67-1.69,10.4,10.4,0,0,1,1-1.54,14,14,0,0,1,1.25-1.42c.22-.23.46-.45.69-.67l.69-.59c.62-.51,1.2-1,1.76-1.41s1.09-.8,1.6-1.14a15.32,15.32,0,0,1,1.49-.84,8.54,8.54,0,0,1,1.41-.55,6.25,6.25,0,0,1,4.81.58,19.73,19.73,0,0,1,4.19,3.14c1.64,1.55,3.51,3.56,5.74,6.06q2.34,2.64,5.29,6.06c1.6,1.84,3.34,3.85,5.26,6,.76.87,1.55,1.75,2.37,2.68s1.86,2.07,2.72,3c3.63,4,6.39,7.51,6.88,13.08,0,.56.07,1.15.07,1.76,0,5.68-1.8,8.91-6.23,14.13C443.47,378.74,441.76,380.63,439.76,382.89Z"/><path class="cls-2" d="M451.06,361.17c-.49-5.57-3.25-9-6.88-13.08-.86-1-1.78-2-2.72-3s-1.61-1.81-2.37-2.68c-1.92-2.18-3.66-4.19-5.26-6q-3-3.42-5.29-6.06c-2.23-2.5-4.1-4.51-5.74-6.06a19.73,19.73,0,0,0-4.19-3.14,6.25,6.25,0,0,0-4.81-.58,8.54,8.54,0,0,0-1.41.55,15.32,15.32,0,0,0-1.49.84c-.51.34-1,.71-1.6,1.14s-1.14.9-1.76,1.41l-.69.59c-.23.22-.47.44-.69.67a14,14,0,0,0-1.25,1.42,10.4,10.4,0,0,0-1,1.54,8.38,8.38,0,0,0-.67,1.69,7.47,7.47,0,0,0,.73,4.65,27.75,27.75,0,0,0,2.64,4.57,70.3,70.3,0,0,0,4.76,6c1.05,1.22,2.14,2.44,3.25,3.63a46.31,46.31,0,0,1-12.5-6.12,48.94,48.94,0,0,1-9.11-8.28,59.58,59.58,0,0,1-7-10.29,79.27,79.27,0,0,1-5.25-12,104,104,0,0,1-3.3-12c-.09-.45-.16-.9-.24-1.35-.8-4.6-1.38-9.34-1.76-14.19s-.59-9.65-.66-14.61,0-9.85.13-14.85.39-10,.66-15,.62-10.13.95-15.17.69-10.29,1-15.35c.32-5.28.59-10.48.76-15.58.19-5.44.26-10.74.16-15.88-.11-5.69-.43-11.16-1.05-16.37a91.85,91.85,0,0,0-3.53-17,53.74,53.74,0,0,0-6.15-13.31,39.93,39.93,0,0,0-2.94-3.94,42.27,42.27,0,0,0-16.64-12A41.75,41.75,0,0,0,327.62,113a36.71,36.71,0,0,0-7.43,1.68A37.53,37.53,0,0,0,308,121.83a62.75,62.75,0,0,0-11.91,14.22A117.37,117.37,0,0,0,288.25,151c-2.19,4.9-4.15,10-5.94,15.07s-3.4,10.16-4.88,15.06c-1.36,4.49-2.6,8.82-3.76,12.85l-.57,2c-.11.37-.21.72-.31,1.09-.41-2.55-.82-5.18-1.27-7.85q-.58-3.42-1.23-6.92c-.73-3.88-1.54-7.8-2.45-11.71-.75-3.24-1.58-6.46-2.5-9.63a122.43,122.43,0,0,0-5.77-16A68.18,68.18,0,0,0,250,129.1c-.12-.14-.23-.29-.35-.44a39.57,39.57,0,0,0-16-11.59,34,34,0,0,0-21.37-.88,44.34,44.34,0,0,0-17.17,9.5c-.68.58-1.34,1.18-2,1.81-2.9,3-5.9,7.78-8.92,13.8-2.13,4.22-4.26,9.07-6.37,14.34-1.81,4.49-3.59,9.3-5.35,14.32-1.62,4.63-3.23,9.44-4.79,14.36-1.51,4.72-3,9.56-4.43,14.4-.42,1.45-.84,2.91-1.27,4.36-.15-1.58-.33-3.17-.51-4.76-.28-2.52-.59-5.06-.93-7.6-.41-3.07-.87-6.14-1.38-9.19-.63-3.79-1.36-7.56-2.19-11.27-.9-4-1.95-8-3.14-11.84a104.79,104.79,0,0,0-5.47-14.12,63.69,63.69,0,0,0-9.5-14.62,44.6,44.6,0,0,0-8.79-7.75,46.19,46.19,0,0,0-5.57-3,36.77,36.77,0,0,0-18.3-3.07,42.93,42.93,0,0,0-17,5.5,61,61,0,0,0-13,9.85,67.35,67.35,0,0,0-9.68,12c-3.11,4.93-5,9.6-5.43,13.08a7,7,0,0,0,.53,4.19,8.87,8.87,0,0,0,.91,1.32A10.29,10.29,0,0,0,63.71,163a13.18,13.18,0,0,0,1.38,1.05,14.81,14.81,0,0,0,1.55.89,16.77,16.77,0,0,0,1.79.79,18,18,0,0,0,1.85.58,17.49,17.49,0,0,0,1.84.35,11.84,11.84,0,0,0,1.75.13,8.23,8.23,0,0,0,3.77-.9c3.27-1.65,5.63-5.39,8.34-9.62a64.07,64.07,0,0,1,6.55-8.92,27.94,27.94,0,0,1,7.91-6.1c.57-.3,1.16-.57,1.78-.83a20.91,20.91,0,0,1,5.9-1.61,14.29,14.29,0,0,1,7.3,1,17.91,17.91,0,0,1,6.52,4.94,42.93,42.93,0,0,1,7.11,12.68,102.2,102.2,0,0,1,3.62,11.47c1.14,4.43,2.15,9.19,3,14.18.73,4.1,1.39,8.36,2,12.69.82,5.93,1.53,12,2.17,18.12,1,9.29,1.83,18.6,2.68,27.35,1,9.78,1.94,18.86,3.16,26.49-.31,1.42-.58,2.75-.83,4-.07.35-.14.68-.2,1-.8,4.07-1.78,8.81-2.74,13.88-.91,4.84-1.81,10-2.52,15.16a155.26,155.26,0,0,0-1.5,16.47,73.17,73.17,0,0,0,.66,13.33c1.19,7.64,4,13.68,9.37,16.57a16.9,16.9,0,0,0,8.11,1.86c9.67,0,15.34-8.35,17.7-17.89a58.16,58.16,0,0,0,1.52-10.44,105.76,105.76,0,0,0,0-11.94A231.1,231.1,0,0,0,172,283.58c-3.29-19.05-3.4-13.32-1.46-21.72,1.08-4.67,2.22-9.42,3.41-14.18s2.39-9.43,3.64-14.15,2.55-9.44,3.86-14.09,2.71-9.45,4.07-14c1.43-4.8,2.86-9.47,4.29-13.93,1.54-4.85,3.06-9.46,4.55-13.77,1.7-4.94,3.35-9.48,4.9-13.5,1.19-3.07,2.33-5.85,3.4-8.26q1-2.34,2.2-4.46a39.36,39.36,0,0,1,5.72-8.13,17.28,17.28,0,0,1,7.78-5.09,10.57,10.57,0,0,1,7.12.55,18.5,18.5,0,0,1,6.45,5c.05.07.11.13.16.19a47.23,47.23,0,0,1,7.34,12.59,111.91,111.91,0,0,1,4.92,15.08c1.13,4.36,2.08,8.8,2.9,13.09,1.14,5.91,2,11.54,2.81,16.33.07.41.13.8.2,1.19,1.27,7.76,2.54,15.25,3.69,22.15,1.74,10.49,3.19,19.6,3.85,26.23l-1.2,4.59c-1.66,6.4-3.09,12.22-4.33,17.55-1.55,6.64-2.77,12.5-3.69,17.73-1.72,9.7-2.4,17.19-2.16,23.31a39,39,0,0,0,3,14.37,28.83,28.83,0,0,0,6.36,9.37c10.74,10.31,27.61,7.93,31.71-11.69a71.16,71.16,0,0,0,1.17-15.76c-.09-4.69-.47-9.67-1-14.76-.75-7.06-1.85-14.35-2.95-21.48-3.94-25.39-3.57-20.73-1.72-27.49q1.8-6.58,3.73-13.76c.09-.31.18-.63.26-.94,1.3-4.83,2.61-9.77,4-14.73s2.69-9.85,4.08-14.73,2.85-9.81,4.32-14.55,3.07-9.56,4.67-14c1.7-4.76,3.46-9.25,5.26-13.35a96.39,96.39,0,0,1,6.24-12.08,40.86,40.86,0,0,1,5.56-7.23,19.72,19.72,0,0,1,2-1.72,17.46,17.46,0,0,1,7.38-3.32,15.76,15.76,0,0,1,9.17,1,19.27,19.27,0,0,1,7.37,5.74,30.13,30.13,0,0,1,4.56,8.16c.14.37.27.76.41,1.14a60,60,0,0,1,2.72,12.73,134.35,134.35,0,0,1,.78,14.14c0,4.66-.1,9.57-.34,14.7-.21,4.83-.52,9.85-.87,15-.33,5-.7,10-1.06,15.22s-.69,10.21-1,15.41-.51,10.39-.64,15.62-.16,10.57,0,15.83.39,10.78.87,16.07c.49,5.53,1.2,11,2.18,16.28a127.4,127.4,0,0,0,4.13,16.38,95.55,95.55,0,0,0,6.86,16.07,77.81,77.81,0,0,0,10.37,14.81,75.5,75.5,0,0,0,13.78,12.1,83.7,83.7,0,0,0,10.75,6.2c.65.32,1.31.61,2,.9a49.78,49.78,0,0,0,15.38,3.79l-.48.53c-2,2.27-3.82,4.25-5.37,6-1.76,2-3.22,3.72-4.41,5.25a31.74,31.74,0,0,0-3,4.33c-1.59,2.9-1.65,5-.55,7.47.14.31.3.62.47.92s.36.6.56.89.42.58.65.87.47.56.72.84a17.71,17.71,0,0,0,4.49,3.5,13.66,13.66,0,0,0,2.37,1,7.43,7.43,0,0,0,2.14.36,7.59,7.59,0,0,0,3.29-.81,18.6,18.6,0,0,0,4.48-3.17,78.55,78.55,0,0,0,6.25-6.55c1.42-1.61,2.94-3.38,4.57-5.28l.63-.73c1.91-2.22,3.63-4.15,5.17-5.87,2-2.26,3.71-4.15,5.14-5.83,4.43-5.22,6.23-8.45,6.23-14.13C451.13,362.32,451.1,361.73,451.06,361.17Z"/></g></g></svg>