<svg xmlns="http://www.w3.org/2000/svg" viewBox="0 0 514.74 514.74"><defs><style>.cls-1{fill:#bb86fc;}.cls-2{fill:#0c0c0c;}</style></defs><g id="Camada_2" data-name="Camada 2"><g id="Layer_1" data-name="Layer 1"><path class="cls-1" d="M439.36,75.38a257.37,257.37,0,0,0-364,364,257.37,257.37,0,0,0,364-364Zm-182,429.52c-136.49,0-247.53-111-247.53-247.53S120.89,9.85,257.38,9.85s247.52,111,247.52,247.52S393.86,504.9,257.38,504.9Z"/><path class="cls-1" d="M504.9,257.37c0,136.49-111,247.53-247.52,247.53S9.85,393.86,9.85,257.37,120.89,9.85,257.38,9.85,504.9,120.88,504.9,257.37Z"/><path class="cls-2" d="M326.47,343.77V172c1.33-.49,2.77-1,4.3-1.63,3.71-1.43,7.92-3.17,12.26-5.1,4-1.76,8.06-3.68,12-5.68a132.76,132.76,0,0,0,11.71-6.69c4.87-3.17,8.59-6.32,10.13-9.15.14-.26.27-.52.39-.77a12.77,12.77,0,0,0,1.34-4.74,8.62,8.62,0,0,0-.05-1.84,9,9,0,0,0-.37-1.67,9.75,9.75,0,0,0-.64-1.52,10.62,10.62,0,0,0-.86-1.35,12,12,0,0,0-1.6-1.73,13.67,13.67,0,0,0-1.8-1.38,14.76,14.76,0,0,0-1.83-1,13.31,13.31,0,0,0-1.71-.69,9.86,9.86,0,0,0-5.79-.1c-2.73.74-5.64,2.47-9.34,4.78-2.81,1.76-6.07,3.86-10.05,6.12-3.12,1.76-6.67,3.63-10.8,5.5-3.34,1.53-7.05,3.06-11.21,4.55-3.45,1.23-7.19,2.44-11.28,3.6-1.88.53-3.82,1.05-5.85,1.56q-2.75.68-5.51,1.26-5.75,1.22-11.56,2c-3.9.52-7.82.89-11.73,1.12s-7.89.32-11.82.27-7.93-.25-11.86-.58-7.93-.81-11.84-1.41-7.87-1.37-11.74-2.25-7.78-1.92-11.57-3.07-7.63-2.48-11.32-3.91-7.41-3-11-4.73-7.1-3.58-10.47-5.55-6.65-4.07-9.77-6.28c-1.59-1.13-3.14-2.28-4.65-3.47A14.29,14.29,0,0,0,166,124a13,13,0,0,0-6.08-.39,13.51,13.51,0,0,0-2.46.66,14,14,0,0,0-2.27,1.09,13,13,0,0,0-2,1.45,12.06,12.06,0,0,0-1.66,1.77,11.23,11.23,0,0,0-1.19,1.88,10,10,0,0,0-.79,2,9.5,9.5,0,0,0-.32,2.19,9.85,9.85,0,0,0,.19,2.28,10.65,10.65,0,0,0,2.46,4.24,57.06,57.06,0,0,0,10.61,9.13A131.42,131.42,0,0,0,174,157.5c3.67,2.05,7.69,4.1,12,6.09,3.89,1.8,8,3.55,12.38,5.21,1.09.42,2.19.82,3.3,1.23V364l-1.8.66c-4.22,1.59-8.35,3.28-12.29,5-4.23,1.87-8.25,3.82-12,5.8-4.27,2.25-8.16,4.54-11.58,6.8a60.83,60.83,0,0,0-10.73,8.66c-2.57,2.76-4,5.31-4,7.5a5.38,5.38,0,0,0,.2,1.35,11.4,11.4,0,0,0,.56,1.6,19,19,0,0,0,.89,1.73,21.1,21.1,0,0,0,3.17,4.15,19.23,19.23,0,0,0,2.35,2,12.05,12.05,0,0,0,2.59,1.39,7.7,7.7,0,0,0,2.7.52,12.27,12.27,0,0,0,5.91-1.9c1.94-1.09,4.1-2.57,6.7-4.27l2.52-1.62q4.91-3.12,9.85-5.9,5.14-2.89,10.37-5.41t10.78-4.75q5.51-2.2,11.13-4t11.4-3.13q5.73-1.33,11.6-2.23t11.7-1.3c3.86-.27,7.77-.41,11.73-.39s7.73.17,11.67.46,7.67.7,11.59,1.25c2.88.41,5.78.89,8.72,1.44l2.84.56c4.1.84,7.91,1.78,11.46,2.79,4.07,1.16,7.8,2.41,11.23,3.72,4,1.52,7.6,3.11,10.85,4.71,3.88,1.92,7.28,3.85,10.29,5.68,3.76,2.29,6.91,4.43,9.67,6.2,3.8,2.44,6.85,4.18,9.68,4.67a8.58,8.58,0,0,0,3.57-.1,9.42,9.42,0,0,0,2.13-.84,13.72,13.72,0,0,0,2.19-1.49,24.09,24.09,0,0,0,2.25-2.13c.5-.53,1-1.12,1.54-1.77.23-.32.45-.63.65-.95a15.47,15.47,0,0,0,.93-1.65,10.59,10.59,0,0,0,.64-1.57,8.33,8.33,0,0,0,.35-1.48,6.91,6.91,0,0,0,.09-1.42,8,8,0,0,0-1-3.58c-1.76-3.27-5.66-6.12-10.4-9.2l-1.67-1.07c-3.26-2.08-6.54-4-9.81-5.8q-6-3.24-11.89-5.91-6.18-2.79-12.28-5c-1.43-.53-2.85-1-4.27-1.5V343.77ZM292,354.15c-4.69-.67-9.16-1.14-13.39-1.46-4.85-.37-9.36-.54-13.45-.58-5.23,0-9.76.13-13.43.38-8.36.56-12.22,1.51-9.57,1.17-1.24.16-2.48.34-3.73.53-4.09.64-8.26,1.47-12.45,2.46h0V177.19c3.67.84,7.43,1.61,11.26,2.26q6.57,1.13,13.4,1.81,6.66.66,13.53.85t13.59-.16q6.74-.34,13.58-1.25,5.4-.72,10.84-1.83v177C298.71,355.2,295.3,354.63,292,354.15Z"/></g></g></svg>