<svg xmlns="http://www.w3.org/2000/svg" viewBox="0 0 514.74 514.74"><defs><style>.cls-1{fill:#bb86fc;}.cls-2{fill:#0c0c0c;}</style></defs><g id="Camada_2" data-name="Camada 2"><g id="Layer_1" data-name="Layer 1"><path class="cls-1" d="M439.36,75.38a257.37,257.37,0,0,0-364,364,257.37,257.37,0,0,0,364-364Zm-182,429.52c-136.49,0-247.53-111-247.53-247.53S120.89,9.85,257.38,9.85s247.52,111,247.52,247.52S393.86,504.9,257.38,504.9Z"/><path class="cls-1" d="M504.9,257.37c0,136.49-111,247.53-247.52,247.53S9.85,393.86,9.85,257.37,120.89,9.85,257.38,9.85,504.9,120.88,504.9,257.37Z"/><path class="cls-2" d="M346.11,355.18a51,51,0,0,0-4.53-15.74,11.34,11.34,0,0,0-2.79-3.7,5.41,5.41,0,0,0-2.51-1,9.94,9.94,0,0,0-3.07.05,17.52,17.52,0,0,0-3.31.89,23.5,23.5,0,0,0-3.22,1.49,24.28,24.28,0,0,0-2.07,1.28,20.35,20.35,0,0,0-1.76,1.38,13.19,13.19,0,0,0-1.34,1.39,5.84,5.84,0,0,0-.81,1.31c-.76,1.87-.58,4-.05,6.52s1.48,5.72,2.17,9.51a53,53,0,0,1,.9,9.63,44.12,44.12,0,0,1-1.2,10.38,32.83,32.83,0,0,1-8.81,16,24.36,24.36,0,0,1-15.09,7A23.44,23.44,0,0,1,284.36,398a30.86,30.86,0,0,1-7.18-6.25,49.49,49.49,0,0,1-4.85-6.7,46.08,46.08,0,0,1-6.27-19.15,72.6,72.6,0,0,1,1.18-21,159.37,159.37,0,0,1,6-21.86c2.47-7.23,5.41-14.74,8.59-22.56,3-7.46,6.28-15.18,9.55-23.17,3.15-7.72,6.32-15.69,9.33-23.91,2.94-8,5.73-16.27,8.19-24.76,2.41-8.33,4.52-16.88,6.16-25.65a217.5,217.5,0,0,0,3.3-26c.27-4.19.42-8.43.42-12.71a136.13,136.13,0,0,0-.75-14.36,114.2,114.2,0,0,0-6.28-27.5,90.47,90.47,0,0,0-14.26-25.55,73.36,73.36,0,0,0-22.39-18.84,65.17,65.17,0,0,0-29.24-7.83,69.81,69.81,0,0,0-29.69,5.91,90.45,90.45,0,0,0-24.91,16.32l-1.16,1.07A62.75,62.75,0,0,0,174.79,117a103.09,103.09,0,0,0-6.28,28.66c-.08,1.05-.15,2.09-.21,3.13a94.36,94.36,0,0,0,2.34,25.79,120,120,0,0,0,9.67,26c3.66,7.43,7.95,14.91,12.56,22.87,3.88,6.71,8,13.76,12.16,21.42q1.38,2.53,2.76,5.16a38,38,0,0,0-5.59-3,47,47,0,0,0-7.13-2.44,58,58,0,0,0-27.36-.22,56.57,56.57,0,0,0-29.18,17.07A57.38,57.38,0,0,0,125.62,284a56.59,56.59,0,0,0-.37,30.4,58.92,58.92,0,0,0,14.89,26.32,54.92,54.92,0,0,0,26.61,15.07,59.2,59.2,0,0,0,21.2,1,62.29,62.29,0,0,0,8.91-1.83,59.86,59.86,0,0,0,26-15.2,61.72,61.72,0,0,0,15.34-25.67c.26-.82.5-1.66.73-2.51a86.63,86.63,0,0,0,3-25.75,96.5,96.5,0,0,0-5.31-27.51,171.11,171.11,0,0,0-10.8-24.41c-4-7.53-8.26-14.89-12.42-22.19-4.08-7.14-8-14.23-11.38-21.37a113.68,113.68,0,0,1-7.87-21.47,70.28,70.28,0,0,1-2-21.66A68.24,68.24,0,0,1,197,126.36l.08-.2a56.57,56.57,0,0,1,11.33-17.72A52.36,52.36,0,0,1,225.31,96.5a46.34,46.34,0,0,1,18.13-4.07c.45,0,.89,0,1.34,0a43.15,43.15,0,0,1,19.27,5.76,61.73,61.73,0,0,1,16.4,13.33,52.7,52.7,0,0,1,8.45,12.94Q290,127,291,129.7a83.53,83.53,0,0,1,4,21.79,158.86,158.86,0,0,1-.47,23.34c-.63,7.22-1.69,15.17-3.24,23.91-.29,1.68-.6,3.38-.93,5.12-1.27,6.27-2.77,12.35-4.45,18.28-2.24,7.94-4.8,15.6-7.53,23-2.9,7.86-6,15.46-9.08,22.84-3.32,7.9-6.67,15.56-9.82,23-3.45,8.17-6.67,16.13-9.39,24a158.52,158.52,0,0,0-6.89,25.92,100.55,100.55,0,0,0-1.42,16.47,86.31,86.31,0,0,0,9.35,38.82c4.84,9.31,11.54,17.36,20,22.71a44.75,44.75,0,0,0,24.23,6.92,45.92,45.92,0,0,0,7.21-.58,49.63,49.63,0,0,0,27.6-14.62,58.1,58.1,0,0,0,10.69-15.4,59.53,59.53,0,0,0,4-11.12A76.5,76.5,0,0,0,346.11,355.18ZM190.27,331.72a35.87,35.87,0,0,1-17.88.25,33.85,33.85,0,0,1-9.74-4.05,30.81,30.81,0,0,1-5.31-4.12,31.53,31.53,0,0,1-8.67-15.48,35.15,35.15,0,0,1,.35-17.44,32,32,0,0,1,8.4-14.38,33.12,33.12,0,0,1,32.88-8.18,32.91,32.91,0,0,1,13.52,7.94c8,7.8,12.54,20.21,9.47,36.28h0a36.72,36.72,0,0,1-7.38,10.26A35.64,35.64,0,0,1,190.27,331.72Z"/></g></g></svg>