<svg xmlns="http://www.w3.org/2000/svg" viewBox="0 0 514.74 514.74"><defs><style>.cls-1{fill:#bb86fc;}.cls-2{fill:#0c0c0c;}</style></defs><g id="Camada_2" data-name="Camada 2"><g id="Layer_1" data-name="Layer 1"><path class="cls-1" d="M439.36,75.38a257.38,257.38,0,0,0-364,364,257.38,257.38,0,0,0,364-364Zm-182,429.52c-136.49,0-247.52-111-247.52-247.53S120.88,9.85,257.37,9.85s247.53,111,247.53,247.52S393.86,504.9,257.37,504.9Z"/><path class="cls-1" d="M504.9,257.37c0,136.49-111,247.53-247.53,247.53S9.85,393.86,9.85,257.37,120.88,9.85,257.37,9.85,504.9,120.89,504.9,257.37Z"/><path class="cls-2" d="M82.81,297.75a8.15,8.15,0,0,0,2.37,1.36,12.58,12.58,0,0,0,2.65.68,38.39,38.39,0,0,0,4.43.35l1.83.06c2,.07,4.3.12,6.88.17s5.2.09,8.12.12,6,.06,9.3.08c4.61,0,9.5,0,14.54.05s10.21,0,15.39,0l16.16-.07,15.15-.11c9.66-.09,18-.2,23.52-.31,3.29-.06,5.61-.13,6.7-.19a5.16,5.16,0,0,0,.64-.06,4.12,4.12,0,0,0,2.87-2.1c1-2,.54-5-.55-8.44s-2.82-7.25-4.36-10.79c-.42-1-.82-1.88-1.19-2.77-2.82-6.76-5-12.09-6.77-17.4a90.63,90.63,0,0,1-2.83-10.86,124.81,124.81,0,0,1-1.76-13.23q-.24-2.78-.42-5.89c-.2-3.36-.33-6.3-.39-8.92a79.93,79.93,0,0,1,.39-11.49,34.94,34.94,0,0,1,3.38-11.54c.52-1.1,1.09-2.22,1.72-3.43a57,57,0,0,1,4.58-7.3,54.15,54.15,0,0,1,8.11-8.75,55.81,55.81,0,0,1,9.53-6.65,59.64,59.64,0,0,1,11.2-4.76,62.16,62.16,0,0,1,11.92-2.46,65.12,65.12,0,0,1,24.74,2.08,61.49,61.49,0,0,1,11.41,4.49,57.62,57.62,0,0,1,10.29,6.76A55.2,55.2,0,0,1,307,195.13a59.86,59.86,0,0,1,4,11,68.94,68.94,0,0,1,2,12.63c0,.83.09,1.67.12,2.51a78.41,78.41,0,0,1-.41,10.42,98,98,0,0,1-2.16,12.5,134.91,134.91,0,0,1-5.11,16.41c-1.92,5.1-4,9.79-5.81,13.9-2,4.36-3.72,8.09-4.89,11a16.74,16.74,0,0,0-1.53,5.38,6.13,6.13,0,0,0,.28,1.81,7.58,7.58,0,0,0,1.74,2.94,4.06,4.06,0,0,0,2.45,1c2.17.37,6.31.56,14.9.65,3.32,0,7.31.05,12.1.06s10.4,0,17,0l14.56,0,10,0h6.22c6.83,0,12.66.05,17.66.09s9.16.05,12.65,0c3,0,5.47-.12,7.56-.27a33.1,33.1,0,0,0,5.2-.73,11.16,11.16,0,0,0,3.47-1.4,8.11,8.11,0,0,0,2.3-2.26,8.54,8.54,0,0,0,.95-1.81,13,13,0,0,0,.65-2.26,17.69,17.69,0,0,0,.33-2.57,19.09,19.09,0,0,0-.07-2.72,16.12,16.12,0,0,0-.35-2.08,14.58,14.58,0,0,0-.64-2,12,12,0,0,0-1-1.85,9.49,9.49,0,0,0-1.29-1.61,5.41,5.41,0,0,0-1.73-1,19.24,19.24,0,0,0-2.8-.81,56,56,0,0,0-5.64-.82c-2.15-.21-4.55-.37-7.15-.48-4.38-.19-9.29-.25-14.4-.25s-10.43.06-15.61.13c-5.94.09-11.72.18-16.83.19s-9.56-.06-12.84-.3a26.49,26.49,0,0,1-4.49-.63,4.13,4.13,0,0,1-.87-.31,19.86,19.86,0,0,1-2.35-1.34,10.34,10.34,0,0,1-1.76-1.49,6.32,6.32,0,0,1-1.12-1.59,6.47,6.47,0,0,1-.62-2.13,10.64,10.64,0,0,1,0-2.45,42,42,0,0,1,1.29-5.85c.07-.29.15-.59.24-.89.47-1.75.9-3.47,1.3-5.18a133.8,133.8,0,0,0,2.89-17.33,108.79,108.79,0,0,0,.4-15.92,91.12,91.12,0,0,0-2.58-17.71,80.2,80.2,0,0,0-5.62-15.5,75.66,75.66,0,0,0-9.52-14.92,77.31,77.31,0,0,0-12.26-12,83.26,83.26,0,0,0-14.51-9.13,90,90,0,0,0-16-6.09,92.84,92.84,0,0,0-16.7-3,94,94,0,0,0-16.94,0,90,90,0,0,0-16.9,3.2,82.61,82.61,0,0,0-15.84,6.44,76.24,76.24,0,0,0-14.25,9.82,72.93,72.93,0,0,0-11.81,13.2,75.57,75.57,0,0,0-7.92,14.6,85.42,85.42,0,0,0-5,17.32,101.3,101.3,0,0,0-1.55,15.63,125.58,125.58,0,0,0,.81,17.36q.69,6,2,12.47t3.17,13.25l0,.09a14.85,14.85,0,0,1,.31,3.88,15.21,15.21,0,0,1-.29,2.58,8.74,8.74,0,0,1-.79,2.36l0,.08a11.4,11.4,0,0,1-.92,1.48,4.86,4.86,0,0,1-1.25,1.18,11.31,11.31,0,0,1-4.86,1.43c-1.86.23-4.3.37-7.54.45s-7.3.11-12.4.11l-13.14-.05c-5,0-10.7-.05-17.16-.06l-8.49,0h-9.43c-2.75,0-5.27,0-7.54.07a30.66,30.66,0,0,0-6.06.71,11.67,11.67,0,0,0-2.5.9,7.38,7.38,0,0,0-2,1.4,7.05,7.05,0,0,0-1.12,1.51,11.33,11.33,0,0,0-.82,1.9,16.16,16.16,0,0,0-.55,2.18c-.13.76-.22,1.54-.28,2.33,0,.48,0,1,0,1.46q0,1.17.09,2.19a15.27,15.27,0,0,0,.61,3.12A9.34,9.34,0,0,0,81.29,296,7.68,7.68,0,0,0,82.81,297.75Z"/><path class="cls-2" d="M424.22,333.62a14,14,0,0,0-.29-1.7,15.5,15.5,0,0,0-.46-1.65,15.31,15.31,0,0,0-.61-1.56,14.69,14.69,0,0,0-.72-1.43,14.22,14.22,0,0,0-1.81-2.53,8.5,8.5,0,0,0-2.06-1.67,13.86,13.86,0,0,0-6.23-1.51c-2.64-.16-5.94-.08-10.22-.06H393.6l-8.22,0h-8.23l-8.22,0-8.22,0h-8.23l-8.22,0H336l-8.23,0h-8.22l-8.22,0h-8.23l-8.22,0H286.7l-8.23,0-8.22,0H188l-8.46,0-8,0-8.51,0c-2.74,0-5.38,0-7.93,0l-8.59,0-7.86.05-8.72.07-7.73.07c-3.28,0-6.27.08-9,.13s-5.2.09-7.44.14c-4.11.09-7.43.2-10.12.32s-4.74.24-6.33.38a19.85,19.85,0,0,0-4.64.78,3.33,3.33,0,0,0-1.41,1,8.81,8.81,0,0,0-1.45,1.92,10.76,10.76,0,0,0-1,2.28,14.52,14.52,0,0,0-.54,2.51,17.42,17.42,0,0,0-.13,2.61,20.25,20.25,0,0,0,.26,2.82,17.92,17.92,0,0,0,.65,2.62,12.51,12.51,0,0,0,1,2.25,7.36,7.36,0,0,0,1.26,1.71,5.23,5.23,0,0,0,2,1.22,18.15,18.15,0,0,0,3.94.82c1.65.21,3.75.36,6.44.47s6,.19,10,.24c2.25,0,4.72.05,7.46.06s5.72,0,9,0H130l8.72,0h7.85l8.59,0h65.79l8.34,0h16.46l8.09,0,8.37,0,8.08,0,8.38,0,8.06,0,8.41,0,8,0,8.44,0,8,0,8.47,0,8,0,8.53,0h7.92l8.62,0h16.6l7.67,0c3.37,0,6.4-.06,9.13-.1s5.16-.09,7.32-.15c4.78-.14,8.27-.34,10.87-.62a24.77,24.77,0,0,0,5.57-1.06,7.84,7.84,0,0,0,2-1,10.89,10.89,0,0,0,1.45-1.28,8.54,8.54,0,0,0,1.39-1.82,9.12,9.12,0,0,0,.84-2.05,10.77,10.77,0,0,0,.36-2.19A14.23,14.23,0,0,0,424.22,333.62Z"/></g></g></svg>