<svg xmlns="http://www.w3.org/2000/svg" viewBox="0 0 514.74 514.74"><defs><style>.cls-1{fill:#bb86fc;}.cls-2{fill:#0c0c0c;}</style></defs><g id="Camada_2" data-name="Camada 2"><g id="Layer_1" data-name="Layer 1"><path class="cls-1" d="M439.36,75.38a257.38,257.38,0,0,0-364,364,257.38,257.38,0,0,0,364-364Zm-182,429.52c-136.48,0-247.52-111-247.52-247.53S120.89,9.85,257.37,9.85s247.53,111,247.53,247.52S393.86,504.9,257.37,504.9Z"/><path class="cls-1" d="M504.9,257.37c0,136.49-111,247.53-247.53,247.53S9.85,393.86,9.85,257.37,120.89,9.85,257.37,9.85,504.9,120.89,504.9,257.37Z"/><path class="cls-2" d="M389.42,108.66a15,15,0,0,0-1.27-3.33,17.92,17.92,0,0,0-2-3,17,17,0,0,0-2.52-2.5,13.19,13.19,0,0,0-1.44-1,9,9,0,0,0-1.49-.75,8.8,8.8,0,0,0-1.51-.48,7.23,7.23,0,0,0-1.52-.17c-2.41,0-5,1.15-8,3.38a62.66,62.66,0,0,0-6.77,6c-.36.36-.72.72-1.07,1.09-1.76,1.77-3.48,3.57-5.15,5.38Q350.43,120,344.91,127q-5.71,7.23-10.68,14.72-5.1,7.69-9.41,15.64-4.44,8.13-8,16.48-3.68,8.5-6.49,17.19t-4.86,17.78q-2,9-3.13,18.18c-.51,4.08-.87,8.18-1.11,12.27h-32l-10,0h-20.9q-.32-4.55-.86-9.12-1.08-9-3.09-18.17c-.59-2.65-1.23-5.3-1.94-7.95-.76-3.22-1.62-6.4-2.54-9.53-1.76-6-3.8-11.73-6.05-17.32-2.33-5.77-4.89-11.32-7.6-16.63-2.85-5.58-5.86-10.89-9-15.88-3.35-5.4-6.78-10.43-10.21-15.05-3.88-5.25-7.75-10-11.43-14.08a127.71,127.71,0,0,0-12.89-12.66,49.71,49.71,0,0,0-6.21-4.49,13,13,0,0,0-3.84-1.66,4.3,4.3,0,0,0-1.52,0,6.38,6.38,0,0,0-1.57.47,10,10,0,0,0-1.59.87,15.57,15.57,0,0,0-1.57,1.2,25,25,0,0,0-2.77,2.85,31.08,31.08,0,0,0-2.29,3.13,22.33,22.33,0,0,0-1.57,2.87,5.64,5.64,0,0,0-.57,2,8.27,8.27,0,0,0,2,4.8,39,39,0,0,0,4.53,5c.71.67,1.49,1.39,2.33,2.15q4.81,4.34,9.26,9,5.58,5.85,10.54,12.2t9.34,13.17q4.36,6.83,8.06,14T202,185.28q3,7.54,5.34,15.36t4,16.14q1.56,7.93,2.38,16.05c.22,2.17.39,4.36.53,6.55h-4.82l-10,0-10,0-10,0-6.34,0a10,10,0,0,0-3.62.85,8.91,8.91,0,0,0-3.58,3,11.07,11.07,0,0,0-1,1.73,14.23,14.23,0,0,0-.71,1.92,15.27,15.27,0,0,0-.44,2,18,18,0,0,0-.17,2.08,16.8,16.8,0,0,0,.09,2.25,18.19,18.19,0,0,0,.36,2.15,13.9,13.9,0,0,0,.61,1.95,9.65,9.65,0,0,0,.84,1.67,7,7,0,0,0,4,3.29c2,.69,5,1.06,10,1.24,2.7.09,6,.13,10,.13,2.92,0,6.22,0,10-.06l10-.09,4.65-.05c0,.55-.08,1.11-.13,1.66q-.69,8-2.14,16.06t-3.62,15.78q-2.15,7.73-5.05,15.37-2.85,7.49-6.43,14.83-3.51,7.17-7.72,14.18-4.12,6.84-8.94,13.48-4.69,6.46-10.06,12.71c-1.79,2.08-3.64,4.15-5.55,6.19s-3.75,3.94-5.7,5.88a12.68,12.68,0,0,0-2,2.62,6.58,6.58,0,0,0-.78,5.24,15.86,15.86,0,0,0,.89,2.32,27.15,27.15,0,0,0,1.45,2.64,25.48,25.48,0,0,0,1.93,2.68,19.54,19.54,0,0,0,2.31,2.41,14.57,14.57,0,0,0,1.47,1.15,11.54,11.54,0,0,0,1.55.9,8.35,8.35,0,0,0,1.62.6,7.17,7.17,0,0,0,1.66.25,6.5,6.5,0,0,0,4.53-1.56,77.89,77.89,0,0,0,8.12-7.48c.59-.58,1.17-1.18,1.75-1.78q3.07-3.15,6-6.53,5.9-6.71,11.3-14.19,5.26-7.29,10-15.24c3.07-5.19,5.95-10.59,8.6-16.15s5-11.1,7.15-16.88,4-11.53,5.62-17.48,2.93-11.87,4-18,1.83-12.1,2.31-18.27c.09-1.22.17-2.43.24-3.65h0l4.38,0,6.44,0,10,0h19.93l10,0,7.74,0,4.43,0,0,.48q.65,9.18,2.15,18.29t3.86,18q2.32,8.83,5.47,17.51t7,16.9q3.82,8.22,8.43,16.19T338,366.08q5.13,7.4,10.95,14.5,3.21,3.9,6.61,7.71l1.77,1.95c2,2.19,3.89,4.19,5.69,5.84,2.45,2.23,4.77,3.79,7.11,4.19a6.78,6.78,0,0,0,1.68.09,6.93,6.93,0,0,0,1.7-.34,9,9,0,0,0,1.74-.81A13.66,13.66,0,0,0,377,397.9a22,22,0,0,0,2.59-2.76c.18-.21.35-.44.53-.67.69-.92,1.29-1.77,1.79-2.56a16.27,16.27,0,0,0,1.59-3.14,7.5,7.5,0,0,0,.49-2.69c0-2-1.06-3.89-2.89-6.1-1.31-1.58-3-3.34-5.1-5.5-.51-.53-1-1.06-1.5-1.59q-3.36-3.57-6.43-7.16c-3.61-4.22-6.92-8.46-10-12.68q-4.89-6.81-8.87-13.56-4.29-7.26-7.62-14.38c-2.41-5.11-4.48-10.14-6.25-15.06-1.92-5.35-3.49-10.57-4.77-15.61-1.41-5.56-2.47-10.91-3.25-16-.82-5.29-1.34-10.29-1.65-14.92l4.42.05,8.84.09,8.71.11h1.26c3.76,0,7.07.08,10,0a43.37,43.37,0,0,0,10-1.06,9.35,9.35,0,0,0,5.43-3.34,8.21,8.21,0,0,0,.89-1.57,10.32,10.32,0,0,0,.62-1.9,17.38,17.38,0,0,0,.36-2.25c.07-.76.1-1.58.1-2.46v-.14a18.6,18.6,0,0,0-.15-2.15,14.16,14.16,0,0,0-.43-2,12.51,12.51,0,0,0-.7-1.86,10.77,10.77,0,0,0-1-1.64,8.92,8.92,0,0,0-5.14-3.46,10.64,10.64,0,0,0-1.32-.25c-.78-.09-3.84-.17-8.64-.23-2.78,0-6.13-.07-10-.1l-10,0-8.58,0h-4.67q.33-4.84.9-9.53,1-8.26,2.73-16,1.78-8.12,4.23-15.65c1.7-5.27,3.61-10.33,5.69-15.17,2.2-5.09,4.58-9.95,7.09-14.56,2.67-4.9,5.49-9.52,8.39-13.87,3.12-4.68,6.34-9,9.58-13.08,3.58-4.47,7.18-8.54,10.68-12.23,1.43-1.49,2.83-2.92,4.22-4.29q1.44-1.43,2.85-2.76c1.38-1.3,2.54-2.32,3.52-3.2,2.7-2.44,3.94-3.79,4.14-6.93A11.34,11.34,0,0,0,389.42,108.66Z"/></g></g></svg>