<svg xmlns="http://www.w3.org/2000/svg" viewBox="0 0 514.74 514.74"><defs><style>.cls-1{fill:#bb86fc;}.cls-2{fill:#0c0c0c;}</style></defs><g id="Camada_2" data-name="Camada 2"><g id="Layer_1" data-name="Layer 1"><path class="cls-1" d="M439.36,75.38a257.37,257.37,0,0,0-364,364,257.37,257.37,0,0,0,364-364Zm-182,429.52c-136.5,0-247.53-111-247.53-247.53S120.88,9.85,257.38,9.85s247.52,111,247.52,247.52S393.86,504.9,257.38,504.9Z"/><path class="cls-1" d="M504.9,257.37c0,136.49-111,247.53-247.52,247.53S9.85,393.86,9.85,257.37,120.88,9.85,257.38,9.85,504.9,120.89,504.9,257.37Z"/><path class="cls-2" d="M415.18,139.8c-.08-4.78-.24-8.69-.5-12a42.36,42.36,0,0,0-1.89-10.55c-.12-.34-.25-.66-.38-1a23.71,23.71,0,0,0-8.55-10.23,29.23,29.23,0,0,0-11.42-4.66,33.72,33.72,0,0,0-5.63-.53h-4.67l-10.42,0-13.2,0-13.2.08-13.2.09c-4.44,0-8.88.07-13.2.12-4.58,0-9,.1-13.21.15-4.85.07-9.33.15-13.21.23-4.65.1-8.44.22-11,.35a19.93,19.93,0,0,0-3.48.33,3.92,3.92,0,0,0-1.69,1.45,9.58,9.58,0,0,0-1.17,2.51,18.6,18.6,0,0,0-.69,3.2,28,28,0,0,0-.07,6.4,20.43,20.43,0,0,0,.45,2.64,11.94,11.94,0,0,0,.72,2.21,5.35,5.35,0,0,0,1,1.58c1.12,1.2,2.24,1.94,5.14,2.39a86.43,86.43,0,0,0,11,.58c3.48,0,7.78,0,13.16,0,3.82,0,8.18,0,13.17-.07l13.17-.07c4.07,0,8.46,0,13.18-.06l10.92,0h2.26l13.18,0h2.42L368,131.62,354.79,145.5l-13.22,13.88-13.22,13.88-13.23,13.88L301.89,201l-13.23,13.86-13.24,13.86-13.24,13.86L251,254.26h0l-4.81-4.58c-1.82-1.73-3.4-3.25-5.51-5.34-1.46-1.46-3.18-3.19-5.4-5.47L231,234.46l-1-1.11c-1.92-2-3.68-3.88-5.27-5.58-2-2.1-3.72-4-5.26-5.61-2.08-2.23-3.8-4.07-5.26-5.59a53.19,53.19,0,0,0-5.56-5.31,7.87,7.87,0,0,0-5.66-1.9,12.06,12.06,0,0,0-2.74.31,13,13,0,0,0-2.61.89,13.62,13.62,0,0,0-2.38,1.4,13.21,13.21,0,0,0-2.05,1.83,12.67,12.67,0,0,0-1.17,1.48,11.35,11.35,0,0,0-1.6,3.37,10.45,10.45,0,0,0-.37,1.85,9.73,9.73,0,0,0,1.83,7.25,50.92,50.92,0,0,0,4.82,6c1.44,1.61,3.18,3.45,5.26,5.61,1.58,1.64,3.37,3.46,5.37,5.48,1.65,1.67,3.45,3.48,5.42,5.45l4.35,4.36,1.07,1.08q2.61,2.58,5.44,5.42l5.45,5.41,5.23,5.2-11.84,12.38L209.19,298l-13.25,13.86-13.22,13.88c-4.84,5.08-9.22,9.7-13.19,13.91-5,5.29-9.35,9.92-13.12,14-5.4,5.82-9.61,10.45-12.89,14.2s-5.61,6.58-7.23,8.79c-2.6,3.53-3.41,5.47-3.41,6.94a4.09,4.09,0,0,0,.22,1.15,10.24,10.24,0,0,0,.61,1.52,16.05,16.05,0,0,0,1,1.75,19.43,19.43,0,0,0,1.34,1.84,20.09,20.09,0,0,0,2.07,2.18,17,17,0,0,0,2.5,1.85,12.9,12.9,0,0,0,2.88,1.3,10.87,10.87,0,0,0,3.2.49c1.19,0,2.4-.42,5.67-3.27,1.92-1.67,4.54-4.17,8.28-7.92,3.42-3.43,7.78-7.91,13.38-13.73,3.8-4,8.19-8.54,13.25-13.85,4-4.17,8.36-8.78,13.21-13.89l13.2-13.9c4.13-4.34,8.51-9,13.19-13.9l13.2-13.91,11.59-12.22,4.61,4.59,5.44,5.43q2.67,2.65,5.43,5.43t5.43,5.43l5.43,5.44,5.41,5.45q2.67,2.67,5.41,5.45l5.41,5.45.56.57a50.83,50.83,0,0,0,5,4.75,11.35,11.35,0,0,0,5.45,2.21,16.11,16.11,0,0,0,2.57-.21,10.61,10.61,0,0,0,2.34-.67,10.84,10.84,0,0,0,2.24-1.24,15.3,15.3,0,0,0,2-1.72l.19-.19a24.09,24.09,0,0,0,2-2.33,14.59,14.59,0,0,0,1.39-2.22,9.64,9.64,0,0,0,.77-2.13,8.2,8.2,0,0,0,.2-2.08,11.62,11.62,0,0,0-2.3-6,45.08,45.08,0,0,0-5-5.85c-1.63-1.67-3.48-3.45-5.47-5.39-1.62-1.56-3.33-3.23-5.11-5l-.36-.37-5.41-5.46-5.41-5.45-5.41-5.45L279.1,282l-5.44-5.43-5.2-5.18h0q5.44-5.72,11.21-11.8l13.21-13.89,13.21-13.9L319.3,217.9,332.51,204l13.22-13.88L359,176.26l13.22-13.88q6.49-6.8,13.23-13.87l4.31-4.52a10.65,10.65,0,0,0,1.06-1.27h0c0,3.17,0,6.69,0,10.44,0,4.13-.05,8.55-.08,13.12,0,4.3-.07,8.73-.11,13.18s-.06,8.87-.08,13.21c0,4.56,0,9,0,13.22,0,2,0,4,0,5.87,0,2.77.07,5.22.12,7.4.14,6.36.37,10.44.72,13.15.57,4.31,1.46,5.23,2.86,6.47a8.6,8.6,0,0,0,2,1.31,11,11,0,0,0,2.26.8,15.23,15.23,0,0,0,2.49.37,23.68,23.68,0,0,0,2.67,0l.68,0a19.24,19.24,0,0,0,2-.24,12.8,12.8,0,0,0,2.3-.62,9.46,9.46,0,0,0,1.88-1,8.32,8.32,0,0,0,1.48-1.27,11.41,11.41,0,0,0,2.56-5.87c.65-3.7.44-8.28.43-13.22,0-.23,0-.45,0-.68q0-6.49,0-12.44,0-6.94,0-13.16c0-4.68.05-9.06.07-13.17,0-4.75.06-9.14.09-13.2,0-4.87.05-9.26.06-13.24C415.26,148.07,415.24,143.65,415.18,139.8Z"/></g></g></svg>