<svg xmlns="http://www.w3.org/2000/svg" viewBox="0 0 514.74 514.74"><defs><style>.cls-1{fill:#bb86fc;}.cls-2{fill:#0c0c0c;}</style></defs><g id="Camada_2" data-name="Camada 2"><g id="Layer_1" data-name="Layer 1"><path class="cls-1" d="M439.36,75.38a257.38,257.38,0,0,0-364,364,257.38,257.38,0,0,0,364-364Zm-182,429.52c-136.48,0-247.52-111-247.52-247.53S120.89,9.85,257.37,9.85s247.53,111,247.53,247.52S393.85,504.9,257.37,504.9Z"/><path class="cls-1" d="M504.9,257.37c0,136.49-111,247.53-247.53,247.53S9.85,393.86,9.85,257.37,120.89,9.85,257.37,9.85,504.9,120.88,504.9,257.37Z"/><path class="cls-2" d="M410.49,120a5.53,5.53,0,0,0-.71-2.14,6.28,6.28,0,0,0-1.72-1.84,14.92,14.92,0,0,0-6.44-2.13,52.5,52.5,0,0,0-12.83,0,69.12,69.12,0,0,0-16.86,4,56.3,56.3,0,0,0-13.49,7.21l-.27.27a129.4,129.4,0,0,0-14.56,17.68C339.78,148.46,336,154.2,332,160c-3.66,5.4-7.44,10.83-11.44,16.06a145.58,145.58,0,0,1-12.43,14.38A86.93,86.93,0,0,1,294.12,202c-1.22.79-2.46,1.55-3.72,2.26a66.36,66.36,0,0,1-12.12,5.24c-1.16.38-2.31.72-3.44,1a94.69,94.69,0,0,0-13.22-.93h-.15a95.17,95.17,0,0,0-12.45.85c-1.49-.36-2.94-.77-4.36-1.22a66.37,66.37,0,0,1-16.15-7.77A86.1,86.1,0,0,1,214.72,190a142,142,0,0,1-12.46-14.59c-3.83-5.06-7.52-10.43-11.19-16-1.34-2-2.68-4.09-4-6.16-2.5-3.87-4.89-7.52-7.27-10.94-4.7-6.75-9.35-12.58-14.71-17.28a50,50,0,0,0-21.84-11.31,72.78,72.78,0,0,0-13.58-1.89c-2.08-.1-4.24-.14-6.51-.11a28.81,28.81,0,0,0-6.5.54,10.05,10.05,0,0,0-3.67,2,7.17,7.17,0,0,0-1.68,2,8.51,8.51,0,0,0-.87,2.27,13.17,13.17,0,0,0-.31,2.26,17.49,17.49,0,0,0,0,2c0,.68.11,1.22.14,1.53a24.33,24.33,0,0,0,.28,2.48,16.38,16.38,0,0,0,.85,3.34,9.31,9.31,0,0,0,1.37,2.47,7.16,7.16,0,0,0,1.83,1.62,9.92,9.92,0,0,0,3.62,1.27,65.06,65.06,0,0,0,8.69.4,42.2,42.2,0,0,1,10.43,1.27,30.33,30.33,0,0,1,11.81,6.24,34.43,34.43,0,0,1,2.57,2.35,71.6,71.6,0,0,1,8.1,10.3c3.32,4.88,6.87,10.62,10.86,16.73,3.67,5.63,7.72,11.58,12.31,17.48a146.6,146.6,0,0,0,14.6,16.25A107.6,107.6,0,0,0,216,220.62h0c-1.31.64-2.6,1.32-3.88,2q-4.46,2.43-8.69,5.28A108.26,108.26,0,0,0,191,237.65a104.82,104.82,0,0,0-10.37,10.89,100.61,100.61,0,0,0-14.49,23.4c-.47,1.06-.91,2.13-1.34,3.21a102.42,102.42,0,0,0-7,30.21q-.35,4.32-.35,8.81a104.56,104.56,0,0,0,2.31,22,101.52,101.52,0,0,0,11.1,29.09,103.13,103.13,0,0,0,16.67,21.83c.87.86,1.75,1.71,2.65,2.54a105.22,105.22,0,0,0,25.48,17.54,103.29,103.29,0,0,0,29.6,9.33,100.57,100.57,0,0,0,53.81-6.5c2.3-1,4.57-2,6.79-3.11A104.91,104.91,0,0,0,331.21,389l1.69-1.66a104.78,104.78,0,0,0,17.26-22.75,101.18,101.18,0,0,0,13.12-49.76c0-3.14-.15-6.25-.43-9.33a105.34,105.34,0,0,0-7.11-29.57,108.83,108.83,0,0,0-22.44-34.84,106.31,106.31,0,0,0-14.37-12.53c-2.75-2-5.59-3.84-8.51-5.55-1.15-.67-2.31-1.31-3.49-1.94,1.9-1.08,3.77-2.22,5.61-3.44,4.59-3.54,8.69-7,12.38-10.49a150.42,150.42,0,0,0,15-16.2,170.12,170.12,0,0,0,12-17.33c3.88-6.31,7.07-12.07,10.39-17.12A53.16,53.16,0,0,1,373,144.07l.3-.24a33.48,33.48,0,0,1,9-5.28,32.46,32.46,0,0,1,9.45-2c3.2-.24,6.08-.14,8.58-.4a10.26,10.26,0,0,0,5.89-2.22A8.12,8.12,0,0,0,407.8,132a9.17,9.17,0,0,0,.9-2c.22-.7.39-1.44.57-2.23.09-.36.18-.73.27-1.12s.22-.84.31-1.24a27.45,27.45,0,0,0,.58-2.93A10.1,10.1,0,0,0,410.49,120Zm-93.9,134.32A79.14,79.14,0,0,1,340.14,299a75.65,75.65,0,0,1,.88,7.8,79.13,79.13,0,0,1-9,42q-1.06,2.29-2.32,4.57a81.74,81.74,0,0,1-13.6,17.95c-.35.36-.71.71-1.07,1.05a79,79,0,0,1-8,6.79,73.24,73.24,0,0,1-11.37,6.9,76.58,76.58,0,0,1-22.75,6.89,94.35,94.35,0,0,1-13.54,1A66.36,66.36,0,0,1,249,393a80.36,80.36,0,0,1-22.79-7.29,83.71,83.71,0,0,1-19.89-13.59c-.72-.67-1.44-1.35-2.14-2A77,77,0,0,1,183,331.27a86.57,86.57,0,0,1-1.86-17.52c0-2.21.08-4.41.24-6.6a80.22,80.22,0,0,1,5.35-23.35,79,79,0,0,1,12-20.69,82.82,82.82,0,0,1,17.7-16.35q2.46-1.69,5.07-3.25a79.42,79.42,0,0,1,31-10.49c.86-.1,1.73-.19,2.6-.26,2.08.15,4.17.23,6.25.23q3.56,0,7.11-.26l2.43.24.13,0a79.16,79.16,0,0,1,35.71,13.35A80.23,80.23,0,0,1,316.59,254.34Z"/></g></g></svg>