<svg xmlns="http://www.w3.org/2000/svg" viewBox="0 0 514.74 514.74"><defs><style>.cls-1{fill:#bb86fc;}.cls-2{fill:#0c0c0c;}</style></defs><g id="Camada_2" data-name="Camada 2"><g id="Layer_1" data-name="Layer 1"><path class="cls-1" d="M439.36,75.38a257.38,257.38,0,0,0-364,364,257.38,257.38,0,0,0,364-364Zm-182,429.52c-136.48,0-247.52-111-247.52-247.53S120.89,9.85,257.37,9.85s247.53,111,247.53,247.52S393.86,504.9,257.37,504.9Z"/><path class="cls-1" d="M504.9,257.37c0,136.49-111,247.53-247.53,247.53S9.85,393.86,9.85,257.37,120.89,9.85,257.37,9.85,504.9,120.88,504.9,257.37Z"/><path class="cls-2" d="M455.59,371.37c-.09-1-.22-2-.39-3.07s-.33-1.9-.53-2.81-.44-1.77-.68-2.55a14.93,14.93,0,0,0-.81-2.07,5.23,5.23,0,0,0-.9-1.37c-1.22-1.22-2.79-1.61-4.94-1.69-1.35,0-2.92,0-4.77.13-1.12.06-2.23.09-3.33.11-2.76.05-5.46,0-8.1-.18a74,74,0,0,1-8-1,59.65,59.65,0,0,1-7.77-1.95,50.07,50.07,0,0,1-7.3-3,47.38,47.38,0,0,1-13.56-10.46l1.67-2.17q4.09-5.43,7.81-11.12c2.48-3.79,4.84-7.66,7-11.57s4.34-8,6.29-12,3.83-8.26,5.51-12.4,3.3-8.54,4.68-12.78q2.17-6.66,3.75-13.18c1.12-4.63,2-9.18,2.65-13.61a117.63,117.63,0,0,0,1.24-14.11,85,85,0,0,0-.85-14.71,53.62,53.62,0,0,0-4.62-15.5,40.12,40.12,0,0,0-2.13-3.81,36.24,36.24,0,0,0-10.25-10,34.28,34.28,0,0,0-21-5.32,36,36,0,0,0-11.38,2.7,37.13,37.13,0,0,0-5.18,2.64c0-.9.07-1.8.09-2.69.19-6.79.14-13.32-.29-19.5a96.8,96.8,0,0,0-3.38-20.59c-2.36-8.07-6-15-11.54-20.54l-.08-.07a43,43,0,0,0-21.65-11.54,39.06,39.06,0,0,0-25,3,42.46,42.46,0,0,0-11.47,8.25,61.39,61.39,0,0,0-6.24,7.38A99.35,99.35,0,0,0,290,156.3c-2.63,5.88-4.91,12.06-7,18.25s-3.83,12.2-5.53,18c-.75,2.54-1.47,5-2.19,7.46-.26.91-.55,1.89-.85,2.91h0c-.57-3.64-1.15-7.2-1.74-10.65q-.79-4.67-1.63-9.09-1.09-5.68-2.3-11c-1-4.18-2-8.15-3.19-11.92a93,93,0,0,0-6.86-16.87,54.15,54.15,0,0,0-6.8-9.93,36.39,36.39,0,0,0-27.53-12.63,39,39,0,0,0-14.72,2.76,41.37,41.37,0,0,0-5.51,2.71,55.55,55.55,0,0,0-14.31,12.53,95.74,95.74,0,0,0-9.71,14.34,146,146,0,0,0-7.2,14.87c-2.08,4.94-4,10-5.65,15.12s-3.21,10.25-4.55,15.27c-.07.28-.15.56-.22.84v0q-.42-3.33-.92-6.68c-.42-2.8-.87-5.59-1.38-8.37-.42-2.28-.87-4.55-1.35-6.79-1-4.69-2.2-9.28-3.6-13.71a106.49,106.49,0,0,0-4.37-11.57,71.31,71.31,0,0,0-6.44-11.47,48.83,48.83,0,0,0-9.62-10.37,40.53,40.53,0,0,0-9.47-5.59c-1.14-.47-2.29-.89-3.45-1.24a37.47,37.47,0,0,0-14.34-1.48,42.92,42.92,0,0,0-13.38,3.5,48.7,48.7,0,0,0-6.69,3.61,51.68,51.68,0,0,0-4.9,3.56,52.35,52.35,0,0,0-8.77,9.18c-2.17,2.89-3.87,5.67-5.42,8.12-.33.54-.69,1.09-1,1.66-2,3.16-4.2,6.68-5,9.84a6.69,6.69,0,0,0,.46,5.33,7.52,7.52,0,0,0,1.06,1.29,12.21,12.21,0,0,0,1.47,1.22,19.16,19.16,0,0,0,1.77,1.13c.62.35,1.27.69,1.94,1s1.31.57,2,.81,1.29.44,1.91.61a16.55,16.55,0,0,0,1.74.37,7.93,7.93,0,0,0,1.48.1,8.32,8.32,0,0,0,5-1.9c2.26-1.77,4.11-4.61,6-7.86l.66-1.14a50,50,0,0,1,4.33-6.36,38.73,38.73,0,0,1,5.54-5.67,27.51,27.51,0,0,1,5.72-3.67,18.18,18.18,0,0,1,6.37-1.72,14.78,14.78,0,0,1,5.79.72,17,17,0,0,1,4.83,2.57,21.63,21.63,0,0,1,2.28,2,35.21,35.21,0,0,1,3.82,5,55.47,55.47,0,0,1,4.94,10,97.18,97.18,0,0,1,3.44,11.05,194.43,194.43,0,0,1,3.74,19.81c1,7.21,1.86,14.84,2.63,22.71,1,10.33,1.92,21.05,3.07,31.74.86,8.1,1.86,16.19,3.14,24.06h0c-1,5.46-1.92,10.36-2.72,14.77-1.07,5.89-2,10.89-2.68,15.17-1.34,7.89-2.14,13.3-2.56,17.26-.8,7.49-.24,9.76.58,13.67.21.88.44,1.73.68,2.55,1.87,6.33,4.79,11.14,8.18,14.28,8.9,8.22,21.22,4.91,26.11-13.38a60,60,0,0,0,1.59-8.7c.11-1.12.2-2.21.27-3.3a103.18,103.18,0,0,0,0-13.74c-.3-4.49-.88-9-1.65-14-.65-4.14-1.45-8.56-2.34-13.47-.66-3.63-1.37-7.51-2.13-11.76q.92-5.25,1.87-10.58c.9-5,1.82-10,2.79-15s2-10,3-15,2.12-9.82,3.25-14.6,2.36-9.65,3.62-14.27c1.31-4.84,2.69-9.53,4.14-14,1.54-4.77,3.16-9.3,4.87-13.52a120.58,120.58,0,0,1,5.9-12.64,63.17,63.17,0,0,1,7.28-10.83,30.27,30.27,0,0,1,8.45-7.08,18.58,18.58,0,0,1,8.27-2.27l.56,0a12.69,12.69,0,0,1,7.14,2.09c3.33,2.19,6.08,6.11,8.51,11.89a104.7,104.7,0,0,1,4.79,15.19c1.05,4.2,2.06,8.88,3.06,14q1.22,6.16,2.42,13.24c1.08,6.27,2.18,13.09,3.34,20.47,1.69,10.71,3.51,22.61,5.58,35.75h0q-.94,3.62-1.85,7.19c-2.08,8.21-4,16.14-5.6,23.21-1.3,5.81-2.37,11-3.1,15.35a84.32,84.32,0,0,0-1.14,13.4,48.9,48.9,0,0,0,2.87,17.51c3.06,8,8.18,12.73,13.49,15s11.11,2.16,15,.18c6.55-3.35,9-11.45,10-18.7A94.5,94.5,0,0,0,289.9,315c-.13-4.64-.48-9.48-1-14.34-.57-5.63-1.31-11.3-2.08-16.74-.55-3.92-1.11-7.71-1.63-11.29-.83-5.76-1.55-10.95-1.91-15.18q.7-2.67,1.4-5.25c1.64-6.14,3.21-11.94,4.81-17.7s3.23-11.61,5-17.7c1.6-5.57,3.3-11.41,5.17-17.74.58-2,1.18-4,1.81-6.12,1.21-4,2.28-7.62,3.38-11.12a130,130,0,0,1,6.08-16.16,102,102,0,0,1,4.95-9.33c1-1.66,2-3.15,3-4.47,3.26-4.52,6.15-7.17,9-8.58,3.33-1.66,6.62-1.64,10.38-1l1.74.34a15.89,15.89,0,0,1,8.41,4.66,25.88,25.88,0,0,1,5.72,11,73.93,73.93,0,0,1,2.31,15.52c.31,5.28.32,11.08.13,17.26-.17,5.69-.5,11.71-.89,18-.38,5.93-.82,12.08-1.24,18.36-.42,6.12-.82,12.36-1.13,18.67s-.54,12.63-.62,19,0,12.91.34,19.26c.34,6.64.93,13.18,1.87,19.53a137.89,137.89,0,0,0,4.05,18.8,95.85,95.85,0,0,0,6.77,17.11q-1.75,1.9-3.57,3.72-4.23,4.24-8.69,8a113.18,113.18,0,0,1-9.32,7.07,91.25,91.25,0,0,1-9.92,5.91,78.66,78.66,0,0,1-10.46,4.47,65.41,65.41,0,0,1-10.26,2.61,58,58,0,0,1-10.94.84c-1.66,0-3.32-.13-5-.31-1.1-.11-2.07-.23-3-.29a8.18,8.18,0,0,0-5.54,1.33,10.06,10.06,0,0,0-1.41,1.14,13.37,13.37,0,0,0-1.27,1.42,17.2,17.2,0,0,0-1.12,1.62,18.84,18.84,0,0,0-.94,1.78,19.83,19.83,0,0,0-.94,2.42,20.45,20.45,0,0,0-.62,2.45,16.47,16.47,0,0,0-.25,2.36,11.32,11.32,0,0,0,.14,2.14,6.14,6.14,0,0,0,3.25,4.18c3.7,2.18,10.06,3,16.9,2.89a99,99,0,0,0,14.48-1.3c2.71-.45,5.25-1,7.43-1.58,2.34-.68,4.66-1.45,6.95-2.29a114.74,114.74,0,0,0,13-5.76,127.61,127.61,0,0,0,12.09-7.17q5.76-3.86,11.17-8.31t10.26-9.23l1-1a70.94,70.94,0,0,0,8.66,7.63,69.57,69.57,0,0,0,9.58,6,72.55,72.55,0,0,0,10.27,4.35,80.76,80.76,0,0,0,10.67,2.8A95.35,95.35,0,0,0,429.2,381c3.44.26,6.95.35,10.51.28h.38a61.59,61.59,0,0,0,10.88-1c2.22-.53,3.53-1.28,4.23-2.38a3.87,3.87,0,0,0,.42-1.43,15.17,15.17,0,0,0,.12-2.26C455.73,373.32,455.68,372.37,455.59,371.37Zm-68.18-153c.38-.43.77-.85,1.17-1.25a17.34,17.34,0,0,1,7.42-4.56,10.85,10.85,0,0,1,8.93,1.12,10.43,10.43,0,0,1,1.78,1.43,13.9,13.9,0,0,1,2.4,3.33,28,28,0,0,1,2.65,8.76,57.81,57.81,0,0,1,.58,8.39c0,.79,0,1.58,0,2.39a96.61,96.61,0,0,1-1.08,11.36c-.58,3.73-1.36,7.57-2.34,11.49-.94,3.74-2.06,7.56-3.36,11.41s-2.65,7.48-4.2,11.24-3.16,7.33-4.94,11-3.62,7.15-5.61,10.67-4,6.93-6.24,10.31c-.8,1.24-1.63,2.47-2.46,3.69-.85-2.6-1.59-5.25-2.25-7.94-.86-3.57-1.57-7.22-2.15-10.92-.87-5.64-1.43-11.43-1.75-17.3s-.39-11.75-.3-17.7.33-12,.67-18q.27-4.92.62-9.82C379.15,231.59,382.62,223.79,387.41,218.37Z"/></g></g></svg>