<?xml version="1.0" encoding="utf-8"?>
<!-- Generator: Adobe Illustrator 25.2.1, SVG Export Plug-In . SVG Version: 6.00 Build 0)  -->
<svg version="1.1" id="Layer_1" xmlns="http://www.w3.org/2000/svg" xmlns:xlink="http://www.w3.org/1999/xlink" x="0px" y="0px"
	 viewBox="0 0 53.1 70" style="enable-background:new 0 0 53.1 70;" xml:space="preserve">
<style type="text/css">
	.st0{fill:#E0E0E0;}
</style>
<path class="st0" d="M44,35c0-12.7-10.3-23-23-23c-1.6,0-3.2,0.2-4.7,0.5c0.9,0.1,1.8,0.2,2.8,0.3c0.7,0.1,1.5,0.2,2.2,0.3
	c0.7,0.2,1.3,0.3,1.9,0.5c0.8,0.2,1.6,0.5,2.4,0.9c5.2,2.5,7.3,8.7,4.8,13.9c-1.7,3.6-5.3,5.8-9.3,5.9C14.4,34.2,9.1,39.4,9,45.9
	c0,3.4,1.4,6.7,4,9c0.1,0.1,0.2,0.2,0.3,0.2l0.1,0.1c0.3,0.2,0.6,0.4,0.9,0.6c0.9,0.6,1.8,1.1,2.9,1.4c0.6,0.2,1.3,0.4,1.9,0.6
	c0,0,0.1,0,0.1,0l0.1,0c0.5,0,1.1,0.1,1.6,0.1C33.7,58,44,47.7,44,35z M42.5,35c0,11.9-9.6,21.5-21.5,21.5c0,0,0,0,0,0
	c-5.7,0-10.4-4.7-10.4-10.4c0-5.7,4.6-10.4,10.4-10.4c6.6,0,11.9-5.3,11.9-11.9c0-3.4-1.5-6.7-4-8.9C37,18.2,42.5,26.1,42.5,35z"/>
<path class="st0" d="M25.7,46.1c0-2.6-2.1-4.7-4.7-4.7s-4.7,2.1-4.7,4.7c0,2.6,2.1,4.7,4.7,4.7c0,0,0,0,0,0
	C23.6,50.8,25.7,48.7,25.7,46.1z M24.2,46.1c0,1.8-1.5,3.2-3.2,3.2c-1.8,0-3.2-1.5-3.2-3.2c0-1.8,1.5-3.2,3.2-3.2
	C22.7,42.9,24.2,44.3,24.2,46.1z"/>
</svg>
