<?xml version="1.0" encoding="utf-8"?>
<!-- Generator: Adobe Illustrator 25.2.1, SVG Export Plug-In . SVG Version: 6.00 Build 0)  -->
<svg version="1.1" id="Layer_1" xmlns="http://www.w3.org/2000/svg" xmlns:xlink="http://www.w3.org/1999/xlink" x="0px" y="0px"
	 viewBox="0 0 53.1 70" style="enable-background:new 0 0 53.1 70;" xml:space="preserve">
<style type="text/css">
	.st0{fill:#E0E0E0;}
</style>
<path class="st0" d="M7.6,35c0,12.7,11.2,23,25,23c1.7,0,3.4-0.2,5.1-0.5c-1-0.1-2-0.2-3-0.3c-0.8-0.1-1.6-0.2-2.4-0.3
	c-0.8-0.2-1.4-0.3-2-0.5c-0.9-0.2-1.8-0.5-2.6-0.9c-5.6-2.5-8-8.7-5.2-13.9c1.9-3.6,5.8-5.8,10.1-5.9c7.1,0.1,12.9-5.2,13-11.7
	c0-3.4-1.6-6.7-4.4-9c-0.1-0.1-0.2-0.2-0.3-0.2l-0.1-0.1c-0.3-0.2-0.7-0.4-1-0.6c-1-0.6-2-1.1-3.1-1.4c-0.7-0.2-1.4-0.4-2.1-0.6
	c0,0-0.1,0-0.1,0l-0.1,0c-0.6,0-1.2-0.1-1.8-0.1C18.8,12,7.6,22.3,7.6,35L7.6,35z M9.2,35c0-11.9,10.5-21.5,23.4-21.5c0,0,0,0,0,0
	c6.2,0,11.3,4.6,11.3,10.4s-5.1,10.4-11.3,10.4l0,0c-7.1,0-12.9,5.3-12.9,11.9c0,3.4,1.6,6.7,4.4,8.9c-3-1.1-5.7-2.7-8-4.8
	C11.6,46.2,9.2,40.7,9.2,35z"/>
<path class="st0" d="M27.5,23.9c0,2.6,2.3,4.7,5.1,4.7s5.1-2.1,5.1-4.7s-2.3-4.7-5.1-4.7C29.8,19.2,27.5,21.3,27.5,23.9z M29.1,23.9
	c0-1.8,1.6-3.2,3.5-3.2s3.5,1.5,3.5,3.2c0,1.8-1.6,3.2-3.5,3.2C30.7,27.1,29.1,25.7,29.1,23.9L29.1,23.9L29.1,23.9z"/>
</svg>
