<?xml version="1.0" encoding="utf-8"?>
<!-- Generator: Adobe Illustrator 25.2.1, SVG Export Plug-In . SVG Version: 6.00 Build 0)  -->
<svg version="1.1" id="Camada_1" xmlns="http://www.w3.org/2000/svg" xmlns:xlink="http://www.w3.org/1999/xlink" x="0px" y="0px"
	 viewBox="0 0 133 133" style="enable-background:new 0 0 133 133;" xml:space="preserve">
<style type="text/css">
	.st0{fill:#5E35B1;stroke:#757575;stroke-width:2;}
	.st1{fill:#E0E0E0;}
	.st2{fill:#1E1E1E;}
	.st3{fill:#BB86FC;}
	.st4{fill:#9A67EA;}
	.st5{fill:#BB86FC;stroke:#757575;stroke-width:2;}
	.st6{fill:none;stroke:#E0E0E0;stroke-width:2;}
	.st7{fill:none;stroke:#E0E0E0;stroke-width:1.5;}
</style>
<g transform="rotate(-12 50 70)">
	<path class="st0" d="M32.5,29.2l30,0c5.5,0,10,4.5,10,10l0,60c0,5.5-4.5,10-10,10l-30,0c-5.5,0-10-4.5-10-10l0-60
		C22.5,33.7,26.9,29.2,32.5,29.2z"/>
	<circle class="st1" cx="47.5" cy="67.2" r="14"/>
	<path class="st2" d="M47.5,53.2c-7.7,0-14,6.3-14,14c0,7.7,6.3,14,14,14c-5.5,0-10-6.3-10-14C37.5,59.5,41.9,53.2,47.5,53.2"/>
	<circle class="st3" cx="34.5" cy="52.2" r="2"/>
	<circle class="st4" cx="54.5" cy="82.2" r="1.5"/>
	<circle class="st3" cx="39.5" cy="75.2" r="1.5"/>
</g>
<g transform="rotate(10 85 70)">
	<path class="st5" d="M69.6,19.9l30,0c5.5,0,10,4.5,10,10l0,60c0,5.5-4.5,10-10,10l-30,0c-5.5,0-10-4.5-10-10l0-60
		C59.6,24.4,64.1,19.9,69.6,19.9z"/>
	<circle class="st4" cx="84.6" cy="59.9" r="12"/>
	<g>
		<line class="st6" x1="84.6" y1="43.9" x2="84.6" y2="75.9"/>
		<line class="st6" x1="68.6" y1="59.9" x2="100.6" y2="59.9"/>
		<line class="st6" x1="72.6" y1="47.9" x2="96.6" y2="71.9"/>
		<line class="st6" x1="96.6" y1="47.9" x2="72.6" y2="71.9"/>
	</g>
	<path class="st7" d="M76.6,79.9c5.3,3.3,10.7,3.3,16,0"/>
</g>
</svg>
