<?xml version="1.0" encoding="utf-8"?>
<!-- Generator: Adobe Illustrator 25.2.1, SVG Export Plug-In . SVG Version: 6.00 Build 0)  -->
<svg version="1.1" id="Camada_1" xmlns="http://www.w3.org/2000/svg" xmlns:xlink="http://www.w3.org/1999/xlink" x="0px" y="0px"
	 viewBox="0 0 193.7 272.3" style="enable-background:new 0 0 193.7 272.3;" xml:space="preserve">
<style type="text/css">
	.st0{fill:none;}
	.st1{fill:#BB86FC;}
	.st2{fill:#5E35B1;stroke:#BB86FC;}
	.st3{fill:#5E35B1;stroke:#BB86FC;stroke-width:2;}
	.st4{fill:none;stroke:#BB86FC;}
	.st5{opacity:0.1;fill:url(#SVGID_1_);enable-background:new    ;}
	.st6{fill:none;stroke:#BB86FC;stroke-width:1.5;}
	.st7{fill:none;stroke:#BB86FC;stroke-width:1.2;}
	.st8{opacity:0.9;}
</style>
<pattern  x="-31.2" y="287.5" width="20" height="20" patternUnits="userSpaceOnUse" id="stars" viewBox="0 -20 20 20" style="overflow:visible;">
	<g>
		<rect y="-20" class="st0" width="20" height="20"/>
		<circle class="st1" cx="10" cy="-10" r="1.2"/>
	</g>
</pattern>
<g>
	<path class="st2" d="M16.8,3.5h136c6.6,0,12,5.4,12,12v216c0,6.6-5.4,12-12,12h-136c-6.6,0-12-5.4-12-12v-216
		C4.8,8.8,10.2,3.5,16.8,3.5z"/>
	<path class="st2" d="M20.8,7.5h136c6.6,0,12,5.4,12,12v216c0,6.6-5.4,12-12,12h-136c-6.6,0-12-5.4-12-12v-216
		C8.8,12.8,14.2,7.5,20.8,7.5z"/>
	<path class="st2" d="M24.8,11.5h136c6.6,0,12,5.4,12,12v216c0,6.6-5.4,12-12,12h-136c-6.6,0-12-5.4-12-12v-216
		C12.8,16.8,18.2,11.5,24.8,11.5z"/>
	<path class="st2" d="M28.8,15.5h136c6.6,0,12,5.4,12,12v216c0,6.6-5.4,12-12,12h-136c-6.6,0-12-5.4-12-12v-216
		C16.8,20.8,22.2,15.5,28.8,15.5z"/>
	<path class="st2" d="M32.8,19.5h136c6.6,0,12,5.4,12,12v216c0,6.6-5.4,12-12,12h-136c-6.6,0-12-5.4-12-12v-216
		C20.8,24.8,26.2,19.5,32.8,19.5z"/>
	<path class="st2" d="M36.8,23.5h136c6.6,0,12,5.4,12,12v216c0,6.6-5.4,12-12,12h-136c-6.6,0-12-5.4-12-12v-216
		C24.8,28.8,30.2,23.5,36.8,23.5z"/>
</g>
<path class="st3" d="M40.8,27.5h136c6.6,0,12,5.4,12,12v216c0,6.6-5.4,12-12,12h-136c-6.6,0-12-5.4-12-12v-216
	C28.8,32.8,34.2,27.5,40.8,27.5z"/>
<path class="st4" d="M44.8,33.5h128c5.5,0,10,4.5,10,10v208c0,5.5-4.5,10-10,10h-128c-5.5,0-10-4.5-10-10v-208
	C34.8,37.9,39.3,33.5,44.8,33.5z"/>
<pattern  id="SVGID_1_" xlink:href="#stars" patternTransform="matrix(1 0 0 -1 7 -15929.5498)">
</pattern>
<path class="st5" d="M48.8,39.5h120c4.4,0,8,3.6,8,8v200c0,4.4-3.6,8-8,8h-120c-4.4,0-8-3.6-8-8v-200C40.8,43,44.4,39.5,48.8,39.5z"
	/>
<g>
	<circle class="st6" cx="108.8" cy="127.5" r="28"/>
	<circle class="st1" cx="108.8" cy="127.5" r="10"/>
	<g>
		<line class="st7" x1="108.8" y1="95.5" x2="108.8" y2="87.5"/>
		<line class="st7" x1="108.8" y1="159.5" x2="108.8" y2="167.5"/>
		<line class="st7" x1="78.8" y1="127.5" x2="70.8" y2="127.5"/>
		<line class="st7" x1="138.8" y1="127.5" x2="146.8" y2="127.5"/>
		<line class="st7" x1="125.8" y1="110.5" x2="133.8" y2="102.5"/>
		<line class="st7" x1="91.8" y1="110.5" x2="83.8" y2="102.5"/>
		<line class="st7" x1="125.8" y1="144.5" x2="133.8" y2="152.5"/>
		<line class="st7" x1="91.8" y1="144.5" x2="83.8" y2="152.5"/>
	</g>
</g>
<g class="st8">
	<polygon class="st1" points="68.8,147.5 70.8,153.5 76.8,153.5 71.8,157.5 73.8,163.5 68.8,159.5 63.8,163.5 65.8,157.5 
		60.8,153.5 66.8,153.5 	"/>
	<polygon class="st1" points="138.8,177.5 140.8,181.5 144.8,181.5 141.8,184.5 142.8,188.5 138.8,186.5 134.8,188.5 135.8,184.5 
		132.8,181.5 136.8,181.5 	"/>
	<circle class="st1" cx="83.8" cy="112.5" r="2"/>
	<circle class="st1" cx="98.8" cy="187.5" r="1.5"/>
	<circle class="st1" cx="118.8" cy="217.5" r="1.8"/>
</g>
</svg>
