<?xml version="1.0" encoding="utf-8"?>
<!-- Generator: Adobe Illustrator 25.2.1, SVG Export Plug-In . SVG Version: 6.00 Build 0)  -->
<svg version="1.1" id="Camada_1" xmlns="http://www.w3.org/2000/svg" xmlns:xlink="http://www.w3.org/1999/xlink" x="0px" y="0px"
	 viewBox="0 0 168 228" style="enable-background:new 0 0 168 228;" xml:space="preserve">
<style type="text/css">
	.st0{fill:none;}
	.st1{fill:#BB86FC;}
	.st2{filter:url(#shadow);}
	.st3{fill:#1E1E1E;}
	.st4{fill:none;stroke:#BB86FC;stroke-width:2;}
	.st5{fill:#5E35B1;stroke:#BB86FC;stroke-width:1.5;}
	.st6{opacity:5.000000e-02;fill:url(#SVGID_1_);enable-background:new    ;}
	.st7{opacity:0.9;}
	.st8{fill:#A56DE2;}
</style>
<filter  height="140%" id="shadow" width="140%" x="-20%" y="-20%">
	<feDropShadow  dx="2" dy="2" flood-color="#5e35b1" flood-opacity="0.4" stdDeviation="2"></feDropShadow>
</filter>
<pattern  x="-65.6" y="274.4" width="20" height="20" patternUnits="userSpaceOnUse" id="stars" viewBox="0 -20 20 20" style="overflow:visible;">
	<g>
		<rect y="-20" class="st0" width="20" height="20"/>
		<circle class="st1" cx="10" cy="-10" r="1.2"/>
	</g>
</pattern>
<g>
	<g class="st2">
		<path class="st3" d="M10.4-5.6h148c8.8,0,16,7.2,16,16v208c0,8.8-7.2,16-16,16h-148c-8.8,0-16-7.2-16-16v-208
			C-5.6,1.6,1.6-5.6,10.4-5.6z"/>
		<path class="st4" d="M10.4-5.6h148c8.8,0,16,7.2,16,16v208c0,8.8-7.2,16-16,16h-148c-8.8,0-16-7.2-16-16v-208
			C-5.6,1.6,1.6-5.6,10.4-5.6z"/>
	</g>
	<path class="st5" d="M16.4,4.4h136c6.6,0,12,5.4,12,12v196c0,6.6-5.4,12-12,12h-136c-6.6,0-12-5.4-12-12v-196
		C4.4,9.8,9.8,4.4,16.4,4.4z"/>
	<pattern  id="SVGID_1_" xlink:href="#stars" patternTransform="matrix(1 0 0 -1 7 -15992.1299)">
	</pattern>
	<path class="st6" d="M20.4,10.4h128c5.5,0,10,4.5,10,10v188c0,5.5-4.5,10-10,10h-128c-5.5,0-10-4.5-10-10v-188
		C10.4,14.9,14.9,10.4,20.4,10.4z"/>
	<path class="st1" d="M84.4,94.4c-9.9,13.3-28.7,15.9-42,6c-23-16.2-10-54.8,18-54C29.1,62.2,53,110,84.4,94.4z"/>
	<g class="st7">
		<path class="st8" d="M64.4,128.4c31.6,0.4,31.6,31.6,0,32C32.8,160,32.8,128.8,64.4,128.4z"/>
		<path class="st8" d="M84.4,126.4c26.2,0.1,26.2,27.9,0,28C58.2,154.3,58.2,126.5,84.4,126.4z"/>
		<path class="st8" d="M104.4,132.4c23.6,0.1,23.6,23.9,0,24C80.8,156.3,80.8,132.5,104.4,132.4z"/>
	</g>
	<g>
		<path class="st1" d="M44.4,72.4c2.6,0,2.6,4,0,4C41.8,76.4,41.8,72.4,44.4,72.4z"/>
		<path class="st1" d="M114.4,52.8c2.1,0,2.1,3.2,0,3.2C112.3,56,112.3,52.8,114.4,52.8z"/>
		<path class="st1" d="M124.4,82.6c2.3,0,2.3,3.6,0,3.6C122.1,86.2,122.1,82.6,124.4,82.6z"/>
		<polygon class="st1" points="134.4,134.4 136.4,138.4 140.4,138.4 137.4,141.4 138.4,145.4 134.4,143.4 130.4,145.4 131.4,141.4 
			128.4,138.4 132.4,138.4 		"/>
	</g>
</g>
</svg>
