<?xml version="1.0" encoding="utf-8"?>
<!-- Generator: Adobe Illustrator 25.2.1, SVG Export Plug-In . SVG Version: 6.00 Build 0)  -->
<svg version="1.1" id="Camada_1" xmlns="http://www.w3.org/2000/svg" xmlns:xlink="http://www.w3.org/1999/xlink" x="0px" y="0px"
	 viewBox="0 0 89.4 70" style="enable-background:new 0 0 89.4 70;" xml:space="preserve">
<style type="text/css">
	.st0{fill:#5E35B1;}
	.st1{fill:#1E1E1E;}
	.st2{fill:#BB86FC;stroke:#1E1E1E;stroke-width:2;}
	.st3{fill:#E0E0E0;stroke:#1E1E1E;stroke-width:2;}
</style>
<g transform="translate(50, 60)">
	<g transform="translate(0, 20)">
		<ellipse class="st0" cx="-14" cy="-16" rx="35" ry="6"/>
		<path class="st0" d="M-49-26c0-3.3,15.7-6,35-6s35,2.7,35,6v10c0,3.3-15.7,6-35,6s-35-2.7-35-6V-26z"/>
		<g>
			<path class="st1" d="M-41-25L-41-25c0.6,0,1,0.4,1,1v6c0,0.6-0.4,1-1,1l0,0c-0.6,0-1-0.4-1-1v-6C-42-24.5-41.6-25-41-25z"/>
			<path class="st1" d="M-27-25L-27-25c0.6,0,1,0.4,1,1v6c0,0.6-0.4,1-1,1l0,0c-0.6,0-1-0.4-1-1v-6C-28-24.5-27.6-25-27-25z"/>
			<path class="st1" d="M-13-25L-13-25c0.6,0,1,0.4,1,1v6c0,0.6-0.4,1-1,1l0,0c-0.6,0-1-0.4-1-1v-6C-14-24.5-13.6-25-13-25z"/>
			<path class="st1" d="M1-25L1-25c0.6,0,1,0.4,1,1v6c0,0.6-0.4,1-1,1l0,0c-0.6,0-1-0.4-1-1v-6C0-24.5,0.4-25,1-25z"/>
			<path class="st1" d="M15-25L15-25c0.6,0,1,0.4,1,1v6c0,0.6-0.4,1-1,1l0,0c-0.6,0-1-0.4-1-1v-6C14-24.5,14.4-25,15-25z"/>
		</g>
		<ellipse class="st2" cx="-14" cy="-26" rx="35" ry="6"/>
		<ellipse class="st3" cx="-14" cy="-26" rx="26" ry="4"/>
		<path class="st1" d="M-14-30c-2.2-2.5-6-2.7-8.5-0.5s-2.7,6-0.5,8.5c2.2,2.5,6,2.7,8.5,0.5c0.2-0.1,0.3-0.3,0.5-0.5
			c-1.5,2.5-4,2.7-5.6,0.5c-1.6-2.2-1.8-6-0.3-8.5c1.5-2.5,4-2.7,5.6-0.5C-14.2-30.3-14.1-30.1-14-30z"/>
	</g>
	<g transform="translate(0, 10)">
		<ellipse class="st0" cx="-14" cy="-16" rx="35" ry="6"/>
		<path class="st0" d="M-49-26c0-3.3,15.7-6,35-6s35,2.7,35,6v10c0,3.3-15.7,6-35,6s-35-2.7-35-6V-26z"/>
		<g>
			<path class="st1" d="M-41-25L-41-25c0.6,0,1,0.4,1,1v6c0,0.6-0.4,1-1,1l0,0c-0.6,0-1-0.4-1-1v-6C-42-24.5-41.6-25-41-25z"/>
			<path class="st1" d="M-27-25L-27-25c0.6,0,1,0.4,1,1v6c0,0.6-0.4,1-1,1l0,0c-0.6,0-1-0.4-1-1v-6C-28-24.5-27.6-25-27-25z"/>
			<path class="st1" d="M-13-25L-13-25c0.6,0,1,0.4,1,1v6c0,0.6-0.4,1-1,1l0,0c-0.6,0-1-0.4-1-1v-6C-14-24.5-13.6-25-13-25z"/>
			<path class="st1" d="M1-25L1-25c0.6,0,1,0.4,1,1v6c0,0.6-0.4,1-1,1l0,0c-0.6,0-1-0.4-1-1v-6C0-24.5,0.4-25,1-25z"/>
			<path class="st1" d="M15-25L15-25c0.6,0,1,0.4,1,1v6c0,0.6-0.4,1-1,1l0,0c-0.6,0-1-0.4-1-1v-6C14-24.5,14.4-25,15-25z"/>
		</g>
		<ellipse class="st2" cx="-14" cy="-26" rx="35" ry="6"/>
		<ellipse class="st3" cx="-14" cy="-26" rx="26" ry="4"/>
		<path class="st1" d="M-14-30c-2.2-2.5-6-2.7-8.5-0.5s-2.7,6-0.5,8.5c2.2,2.5,6,2.7,8.5,0.5c0.2-0.1,0.3-0.3,0.5-0.5
			c-1.5,2.5-4,2.7-5.6,0.5c-1.6-2.2-1.8-6-0.3-8.5c1.5-2.5,4-2.7,5.6-0.5C-14.2-30.3-14.1-30.1-14-30z"/>
	</g>
	<g>
		<ellipse class="st0" cx="-14" cy="-16" rx="35" ry="6"/>
		<path class="st0" d="M-49-26c0-3.3,15.7-6,35-6s35,2.7,35,6v10c0,3.3-15.7,6-35,6s-35-2.7-35-6V-26z"/>
		<g>
			<path class="st1" d="M-41-25L-41-25c0.6,0,1,0.4,1,1v6c0,0.6-0.4,1-1,1l0,0c-0.6,0-1-0.4-1-1v-6C-42-24.5-41.6-25-41-25z"/>
			<path class="st1" d="M-27-25L-27-25c0.6,0,1,0.4,1,1v6c0,0.6-0.4,1-1,1l0,0c-0.6,0-1-0.4-1-1v-6C-28-24.5-27.6-25-27-25z"/>
			<path class="st1" d="M-13-25L-13-25c0.6,0,1,0.4,1,1v6c0,0.6-0.4,1-1,1l0,0c-0.6,0-1-0.4-1-1v-6C-14-24.5-13.6-25-13-25z"/>
			<path class="st1" d="M1-25L1-25c0.6,0,1,0.4,1,1v6c0,0.6-0.4,1-1,1l0,0c-0.6,0-1-0.4-1-1v-6C0-24.5,0.4-25,1-25z"/>
			<path class="st1" d="M15-25L15-25c0.6,0,1,0.4,1,1v6c0,0.6-0.4,1-1,1l0,0c-0.6,0-1-0.4-1-1v-6C14-24.5,14.4-25,15-25z"/>
		</g>
		<ellipse class="st2" cx="-14" cy="-26" rx="35" ry="6"/>
		<ellipse class="st3" cx="-14" cy="-26" rx="26" ry="4"/>
		<path class="st1" d="M-14-30c-2.2-2.5-6-2.7-8.5-0.5s-2.7,6-0.5,8.5c2.2,2.5,6,2.7,8.5,0.5c0.2-0.1,0.3-0.3,0.5-0.5
			c-1.5,2.5-4,2.7-5.6,0.5c-1.6-2.2-1.8-6-0.3-8.5c1.5-2.5,4-2.7,5.6-0.5C-14.2-30.3-14.1-30.1-14-30z"/>
	</g>
</g>
<g transform="rotate(45 140 100)">
	<g transform="translate(100, 50)">
		
			<ellipse transform="matrix(-0.3511 0.9364 -0.9364 -0.3511 -23.2199 134.8805)" class="st0" cx="-58.3" cy="59.4" rx="6" ry="35"/>
		<path class="st0" d="M-87.6,37.7c1.2-3.1,16.8-0.1,34.9,6.7s31.8,14.8,30.7,17.9l-3.5,9.4c-1.2,3.1-16.8,0.1-34.9-6.7
			c-18.1-6.8-31.8-14.8-30.7-17.9L-87.6,37.7z"/>
		<g>
			<path class="st1" d="M-80.5,41.5L-80.5,41.5c0.5,0.2,0.8,0.8,0.6,1.3l-2.1,5.6c-0.2,0.5-0.8,0.8-1.3,0.6l0,0
				c-0.5-0.2-0.8-0.8-0.6-1.3l2.1-5.6C-81.6,41.6-81,41.3-80.5,41.5z"/>
			<path class="st1" d="M-67.4,46.4L-67.4,46.4c0.5,0.2,0.8,0.8,0.6,1.3l-2.1,5.6c-0.2,0.5-0.8,0.8-1.3,0.6l0,0
				c-0.5-0.2-0.8-0.8-0.6-1.3l2.1-5.6C-68.5,46.5-67.9,46.2-67.4,46.4z"/>
			<path class="st1" d="M-54.3,51.3L-54.3,51.3c0.5,0.2,0.8,0.8,0.6,1.3l-2.1,5.6c-0.2,0.5-0.8,0.8-1.3,0.6l0,0
				c-0.5-0.2-0.8-0.8-0.6-1.3l2.1-5.6C-55.3,51.4-54.8,51.1-54.3,51.3z"/>
			<path class="st1" d="M-41.1,56.2L-41.1,56.2c0.5,0.2,0.8,0.8,0.6,1.3l-2.1,5.6c-0.2,0.5-0.8,0.8-1.3,0.6l0,0
				c-0.5-0.2-0.8-0.8-0.6-1.3l2.1-5.6C-42.2,56.3-41.7,56-41.1,56.2z"/>
			<path class="st1" d="M-28,61.1L-28,61.1c0.5,0.2,0.8,0.8,0.6,1.3l-2.1,5.6c-0.2,0.5-0.8,0.8-1.3,0.6l0,0
				c-0.5-0.2-0.8-0.8-0.6-1.3l2.1-5.6C-29.1,61.2-28.6,61-28,61.1z"/>
		</g>
		<ellipse transform="matrix(-0.3511 0.9364 -0.9364 -0.3511 -27.2446 118.9427)" class="st2" cx="-54.8" cy="50" rx="6" ry="35"/>
		<ellipse transform="matrix(-0.3511 0.9364 -0.9364 -0.3511 -27.2446 118.9427)" class="st3" cx="-54.8" cy="50" rx="4" ry="26"/>
		<path class="st1" d="M-53.4,46.3c-1.2-3.1-4.7-4.6-7.8-3.4c-3.1,1.2-4.6,4.7-3.4,7.8c1.2,3.1,4.7,4.6,7.8,3.4
			c0.2-0.1,0.4-0.2,0.6-0.3c-2.2,1.8-4.7,1.1-5.5-1.5c-0.8-2.6,0.4-6.2,2.7-8c2.2-1.8,4.7-1.1,5.5,1.5
			C-53.5,45.9-53.5,46.1-53.4,46.3z"/>
	</g>
</g>
</svg>
